<svg width="237" height="237" viewBox="0 0 237 237" fill="none" xmlns="http://www.w3.org/2000/svg">
<rect width="237" height="237" fill="url(#paint0_linear_69_110)"/>
<circle cx="118.5" cy="118.5" r="97.5" fill="white"/>
<path d="M192.333 119L176.067 100.4L178.333 75.8L154.267 70.3333L141.667 49L119 58.7333L96.3333 49L83.7333 70.2667L59.6666 75.6667L61.9333 100.333L45.6666 119L61.9333 137.6L59.6666 162.267L83.7333 167.733L96.3333 189L119 179.2L141.667 188.933L154.267 167.667L178.333 162.2L176.067 137.6L192.333 119ZM101.533 145.733L85.6666 129.733C83.0666 127.133 83.0666 122.933 85.6666 120.333L86.1333 119.867C88.7333 117.267 93 117.267 95.6 119.867L106.333 130.667L140.667 96.2667C143.267 93.6667 147.533 93.6667 150.133 96.2667L150.6 96.7333C153.2 99.3333 153.2 103.533 150.6 106.133L111.133 145.733C108.4 148.333 104.2 148.333 101.533 145.733Z" fill="url(#paint1_linear_69_110)"/>
<defs>
<linearGradient id="paint0_linear_69_110" x1="118.5" y1="0" x2="118.5" y2="237" gradientUnits="userSpaceOnUse">
<stop stop-color="#FFEA28"/>
<stop offset="1" stop-color="#FFA800"/>
</linearGradient>
<linearGradient id="paint1_linear_69_110" x1="119" y1="49" x2="119" y2="189" gradientUnits="userSpaceOnUse">
<stop stop-color="#FFEA28"/>
<stop offset="1" stop-color="#FFA800"/>
</linearGradient>
</defs>
</svg>
