<svg width="237" height="237" viewBox="0 0 237 237" fill="none" xmlns="http://www.w3.org/2000/svg">
<rect width="237" height="237" fill="#268AFF"/>
<circle cx="118.5" cy="118.5" r="97.5" fill="white"/>
<g clip-path="url(#clip0_22_11)">
<mask id="mask0_22_11" style="mask-type:luminance" maskUnits="userSpaceOnUse" x="-241" y="-156" width="1204" height="1034">
<path d="M-240.837 -155.281H962.073V877.608H-240.837V-155.281Z" fill="white"/>
</mask>
<g mask="url(#mask0_22_11)">
<path d="M83.1296 116.306H71.0162L77.2309 104.262H86.0789L83.1296 116.306ZM100.036 96.2783H81.3536H75.4562H68.9669L44.2936 144.085H56.6829L67.0376 124.016H81.2816L76.3856 144.125H85.8042H88.4296H174.726L187.954 136.129L90.3656 136.138L100.036 96.2783Z" fill="#268AFF"/>
</g>
<mask id="mask1_22_11" style="mask-type:luminance" maskUnits="userSpaceOnUse" x="-241" y="-156" width="1204" height="1034">
<path d="M-240.837 -155.282H962.073V877.608H-240.837V-155.282Z" fill="white"/>
</mask>
<g mask="url(#mask1_22_11)">
<path d="M126.689 117.763L125.301 123.556H98.4361L96.5268 131.54H135.436L140.571 110.053H114.329L115.715 104.263H141.955L143.86 96.276H104.953L99.8215 117.763H126.689Z" fill="#268AFF"/>
</g>
<path d="M151.734 131.54L156.276 113.336L158.922 131.54H168.572L175.179 113.133L175.475 131.54H187.954L186.923 96.2759H179.947V96.2706H170.564L166.003 110.291L163.576 96.2759H148.546L140.123 131.54H151.734Z" fill="#268AFF"/>
</g>
<path d="M69.737 141.585C68.9025 143.027 69.4032 144.893 70.8445 145.727C72.2858 146.562 74.1519 146.061 74.9864 144.62C75.8208 143.178 75.3201 141.312 73.8788 140.478C72.4375 139.643 70.5714 140.144 69.737 141.585Z" fill="#268AFF"/>
<path d="M72.1189 148.276C72.1189 148.276 69.6459 146.85 68.1743 146C64.9427 144.119 63.6076 140.19 64.8668 136.791C65.1248 136.093 64.8517 135.319 64.2145 134.955C63.4104 134.5 62.3635 134.849 62.0449 135.714C60.6036 139.522 61.5139 143.831 64.26 146.744L57.2052 158.957C56.7803 159.685 57.0383 160.611 57.7665 161.035C58.4947 161.46 59.4202 161.202 59.845 160.474L61.3622 157.849L63.9869 159.367L60.194 165.936C59.7692 166.664 60.0271 167.59 60.7553 168.014C61.4836 168.439 62.409 168.181 62.8338 167.453L71.6182 152.251C73.1051 154.284 73.5299 156.985 72.6196 159.412C72.3616 160.095 72.6499 160.869 73.2719 161.233C74.076 161.703 75.1229 161.354 75.4567 160.474C76.9283 156.499 76.0787 151.614 72.1189 148.276Z" fill="#268AFF"/>
<path d="M67.4308 138.248C68.5232 138.87 69.9038 138.505 70.541 137.413C71.1631 136.321 70.7989 134.94 69.7066 134.303C68.6142 133.681 67.2336 134.045 66.5964 135.137C65.9744 136.23 66.3385 137.626 67.4308 138.248Z" fill="#268AFF"/>
<path d="M174.608 71.1395C176.303 71.1395 177.678 69.7652 177.678 68.0698C177.678 66.3744 176.303 65 174.608 65C172.913 65 171.538 66.3744 171.538 68.0698C171.538 69.7652 172.913 71.1395 174.608 71.1395Z" fill="#268AFF"/>
<path d="M186.12 81.1163V75.4372L178.461 72.1986C176.956 71.5693 175.207 72.0912 174.301 73.4419L172.766 75.8977C171.738 77.7088 169.835 79.0595 167.532 79.4586L167.624 79.5507C168.683 80.6098 169.957 81.193 171.4 81.3465C172.628 80.7019 173.733 79.8423 174.608 78.8293L175.529 83.4339L173.748 85.1223L172.306 86.4884V87.6549V96.4651C172.306 97.3093 172.996 98 173.841 98C174.685 98 175.375 97.3093 175.375 96.4651V88.7907L178.599 85.7209L181.085 96.7567C181.254 97.4781 181.899 98 182.651 98C183.664 98 184.416 97.0791 184.216 96.0967L181.239 81.1163L180.287 76.3581L183.05 77.4326V81.1163C183.05 81.9605 183.741 82.6512 184.585 82.6512C185.429 82.6512 186.12 81.9605 186.12 81.1163Z" fill="#268AFF"/>
<path d="M165.076 76.8339C165.414 77.0642 165.798 77.2023 166.182 77.279C166.381 77.3097 166.565 77.3404 166.765 77.3404C166.964 77.3404 167.164 77.3251 167.348 77.279C167.548 77.2483 167.732 77.1869 167.916 77.1102C168.284 76.9567 168.637 76.7418 168.929 76.4348C169.681 75.6828 169.957 74.639 169.773 73.6721C169.666 73.1042 169.389 72.5362 168.929 72.0911C168.637 71.7995 168.284 71.5693 167.916 71.4158C167.732 71.339 167.548 71.2776 167.348 71.2469C167.148 71.2162 166.964 71.1855 166.765 71.1855C166.581 71.1855 166.412 71.2009 166.228 71.2316C166.013 71.2623 165.798 71.3237 165.598 71.4004C165.245 71.5693 164.892 71.7995 164.601 72.0911C164.14 72.5362 163.864 73.1042 163.756 73.6721C163.572 74.639 163.848 75.6828 164.601 76.4348C164.739 76.5883 164.908 76.7111 165.076 76.8339Z" fill="#268AFF"/>
<path d="M166.535 80.625L163.465 77.5553C163.311 77.4018 163.158 77.279 162.989 77.1562C162.651 76.9413 162.268 76.7878 161.884 76.7264C161.684 76.6804 161.5 76.665 161.301 76.665C160.518 76.665 159.735 76.972 159.136 77.5706L154.01 82.6971C153.381 83.3264 153.058 84.2013 153.12 85.0609C153.12 85.3371 153.181 85.6288 153.288 85.905L154.931 90.4329L150.449 94.9148C149.85 95.5134 149.85 96.4804 150.449 97.079C151.048 97.6776 152.015 97.6776 152.613 97.079L158.047 91.6455V88.2381L160.027 90.126V96.465C160.027 97.3092 160.717 97.9999 161.562 97.9999C162.406 97.9999 163.096 97.3092 163.096 96.465V88.7906L159.842 85.5367L163.465 81.9143L164.555 83.0041C166.12 84.539 168.054 85.5981 170.372 85.9818C171.354 86.1506 172.229 85.2911 172.152 84.2934C172.106 83.5567 171.538 82.9581 170.817 82.8506C169.082 82.5743 167.655 81.7455 166.535 80.625Z" fill="#268AFF"/>
<defs>
<clipPath id="clip0_22_11">
<rect width="153.954" height="91.1249" fill="white" transform="translate(34 53)"/>
</clipPath>
</defs>
</svg>
