<svg width="237" height="237" viewBox="0 0 237 237" fill="none" xmlns="http://www.w3.org/2000/svg">
<rect width="237" height="237" fill="#AE712A"/>
<circle cx="118.5" cy="118.5" r="97.5" fill="white"/>
<path d="M150.794 70C139.355 70 127.035 72.331 118.529 78.7414C110.023 72.331 97.704 70 86.2647 70C77.7585 70 68.7244 71.2821 61.1569 74.6038C56.8745 76.5269 54 80.6645 54 85.3848V151.12C54 158.696 61.1569 164.29 68.5484 162.425C74.2974 160.968 80.3984 160.327 86.2647 160.327C95.4161 160.327 105.154 161.843 113.015 165.689C116.535 167.437 120.524 167.437 123.985 165.689C131.846 161.784 141.584 160.327 150.735 160.327C156.602 160.327 162.703 160.968 168.452 162.425C175.843 164.348 183 158.754 183 151.12V85.3848C183 80.6645 180.126 76.5269 175.843 74.6038C168.334 71.2821 159.3 70 150.794 70ZM171.326 144.185C171.326 147.856 167.924 150.537 164.286 149.896C159.887 149.08 155.311 148.731 150.794 148.731C140.821 148.731 126.449 152.518 118.529 157.472V90.3965C126.449 85.4431 140.821 81.6552 150.794 81.6552C156.191 81.6552 161.529 82.1796 166.633 83.2869C169.332 83.8696 171.326 86.2589 171.326 88.9979V144.185Z" fill="#AE712A"/>
<path d="M130.145 107.938C128.267 107.938 126.566 106.772 125.98 104.907C125.217 102.634 126.508 100.129 128.795 99.4293C137.829 96.5155 149.503 95.5831 160.239 96.8069C162.644 97.0982 164.404 99.2544 164.111 101.644C163.817 104.033 161.647 105.781 159.241 105.49C149.738 104.383 139.355 105.257 131.494 107.763C131.025 107.821 130.555 107.938 130.145 107.938Z" fill="#AE712A"/>
<path d="M130.145 123.439C128.267 123.439 126.566 122.273 125.98 120.409C125.217 118.136 126.508 115.63 128.795 114.931C137.771 112.017 149.503 111.084 160.239 112.308C162.644 112.6 164.404 114.756 164.111 117.145C163.817 119.534 161.647 121.283 159.241 120.991C149.738 119.884 139.355 120.758 131.494 123.264C131.025 123.381 130.555 123.439 130.145 123.439Z" fill="#AE712A"/>
<path d="M130.145 138.94C128.267 138.94 126.566 137.775 125.98 135.91C125.217 133.637 126.508 131.131 128.795 130.432C137.771 127.518 149.503 126.586 160.239 127.809C162.644 128.101 164.404 130.257 164.111 132.646C163.817 135.036 161.647 136.726 159.241 136.493C149.738 135.385 139.355 136.259 131.494 138.765C131.025 138.882 130.555 138.94 130.145 138.94Z" fill="#AE712A"/>
</svg>
