<svg width="237" height="237" viewBox="0 0 237 237" fill="none" xmlns="http://www.w3.org/2000/svg">
<rect width="237" height="237" fill="#81EEBA"/>
<circle cx="118.5" cy="118.5" r="97.5" fill="white"/>
<path d="M118.5 45C77.928 45 45 77.928 45 118.5C45 159.072 77.928 192 118.5 192C159.072 192 192 159.072 192 118.5C192 77.928 159.072 45 118.5 45ZM98.5815 150.032L72.195 123.645C69.3285 120.778 69.3285 116.148 72.195 113.281C75.0615 110.415 79.692 110.415 82.5585 113.281L103.8 134.449L154.368 83.8815C157.234 81.015 161.865 81.015 164.732 83.8815C167.598 86.748 167.598 91.3785 164.732 94.245L108.945 150.032C106.152 152.898 101.448 152.898 98.5815 150.032Z" fill="#81EEBA"/>
</svg>
