<svg width="237" height="237" viewBox="0 0 237 237" fill="none" xmlns="http://www.w3.org/2000/svg">
<rect width="237" height="237" fill="#78D023"/>
<circle cx="118.5" cy="118.5" r="97.5" fill="white"/>
<path d="M117.36 105.923H106.28C105.854 103.556 105.061 101.473 103.901 99.6733C102.741 97.8741 101.32 96.3471 99.6396 95.0923C97.9587 93.8376 96.0766 92.8906 93.9933 92.2514C91.9336 91.6122 89.7437 91.2926 87.4237 91.2926C83.2333 91.2926 79.4809 92.3461 76.1665 94.4531C72.8758 96.5601 70.2717 99.6496 68.354 103.722C66.4601 107.794 65.5131 112.765 65.5131 118.636C65.5131 124.555 66.4601 129.55 68.354 133.622C70.2717 137.694 72.8877 140.772 76.2021 142.855C79.5165 144.938 83.2451 145.98 87.3881 145.98C89.6845 145.98 91.8626 145.672 93.9222 145.057C96.0056 144.418 97.8877 143.482 99.5685 142.251C101.249 141.02 102.67 139.517 103.83 137.741C105.014 135.942 105.83 133.883 106.28 131.562L117.36 131.598C116.768 135.173 115.62 138.464 113.915 141.47C112.234 144.453 110.068 147.034 107.417 149.212C104.789 151.366 101.782 153.035 98.3967 154.219C95.0112 155.402 91.3181 155.994 87.3171 155.994C81.0198 155.994 75.409 154.503 70.4847 151.52C65.5605 148.513 61.6779 144.216 58.837 138.629C56.0198 133.042 54.6112 126.378 54.6112 118.636C54.6112 110.871 56.0316 104.207 58.8725 98.6435C61.7134 93.0563 65.596 88.7713 70.5202 85.7884C75.4445 82.7817 81.0434 81.2784 87.3171 81.2784C91.176 81.2784 94.7745 81.8348 98.1126 82.9474C101.474 84.0365 104.493 85.6463 107.168 87.777C109.843 89.884 112.057 92.4645 113.809 95.5185C115.56 98.5488 116.744 102.017 117.36 105.923Z" fill="#213D12"/>
<path d="M182.895 105.923H171.815C171.389 103.556 170.596 101.473 169.436 99.6733C168.276 97.8741 166.856 96.3471 165.175 95.0923C163.494 93.8376 161.612 92.8906 159.528 92.2514C157.469 91.6122 155.279 91.2926 152.959 91.2926C148.768 91.2926 145.016 92.3461 141.702 94.4531C138.411 96.5601 135.807 99.6496 133.889 103.722C131.995 107.794 131.048 112.765 131.048 118.636C131.048 124.555 131.995 129.55 133.889 133.622C135.807 137.694 138.423 140.772 141.737 142.855C145.052 144.938 148.78 145.98 152.923 145.98C155.22 145.98 157.398 145.672 159.457 145.057C161.541 144.418 163.423 143.482 165.104 142.251C166.785 141.02 168.205 139.517 169.365 137.741C170.549 135.942 171.366 133.883 171.815 131.562L182.895 131.598C182.303 135.173 181.155 138.464 179.45 141.47C177.769 144.453 175.603 147.034 172.952 149.212C170.324 151.366 167.317 153.035 163.932 154.219C160.546 155.402 156.853 155.994 152.852 155.994C146.555 155.994 140.944 154.503 136.02 151.52C131.096 148.513 127.213 144.216 124.372 138.629C121.555 133.042 120.146 126.378 120.146 118.636C120.146 110.871 121.567 104.207 124.408 98.6435C127.249 93.0563 131.131 88.7713 136.055 85.7884C140.98 82.7817 146.579 81.2784 152.852 81.2784C156.711 81.2784 160.31 81.8348 163.648 82.9474C167.009 84.0365 170.028 85.6463 172.703 87.777C175.378 89.884 177.592 92.4645 179.344 95.5185C181.096 98.5488 182.279 102.017 182.895 105.923Z" fill="white"/>
<path d="M117.36 105.923V112.923H125.549L124.274 104.834L117.36 105.923ZM106.28 105.923L99.3909 107.163L100.428 112.923H106.28V105.923ZM99.6396 95.0923L103.827 89.4829L103.827 89.4829L99.6396 95.0923ZM93.9933 92.2514L91.9185 98.9369L91.9292 98.9402L91.94 98.9435L93.9933 92.2514ZM76.1665 94.4531L72.4112 88.5458L72.4016 88.5519L72.392 88.558L76.1665 94.4531ZM68.354 103.722L62.0212 100.739L62.014 100.754L62.007 100.769L68.354 103.722ZM68.354 133.622L62.007 136.574L62.014 136.589L62.0212 136.605L68.354 133.622ZM76.2021 142.855L72.4769 148.782L72.4769 148.782L76.2021 142.855ZM93.9222 145.057L95.9266 151.764L95.9511 151.756L95.9755 151.749L93.9222 145.057ZM99.5685 142.251L95.4324 136.604L99.5685 142.251ZM103.83 137.741L97.982 133.894L97.9758 133.903L97.9697 133.913L103.83 137.741ZM106.28 131.562L106.303 124.563L100.511 124.544L99.4082 130.23L106.28 131.562ZM117.36 131.598L124.266 132.741L125.61 124.624L117.382 124.598L117.36 131.598ZM113.915 141.47L107.826 138.018L107.821 138.026L107.817 138.034L113.915 141.47ZM107.417 149.212L111.855 154.625L111.86 154.621L107.417 149.212ZM98.3967 154.219L100.707 160.826L100.707 160.826L98.3967 154.219ZM70.4847 151.52L66.8369 157.494L66.8474 157.501L66.8579 157.507L70.4847 151.52ZM58.837 138.629L52.5866 141.781L52.592 141.791L52.5973 141.802L58.837 138.629ZM58.8725 98.6435L65.1068 101.827L65.1122 101.816L58.8725 98.6435ZM70.5202 85.7884L74.1471 91.7755L74.1576 91.7691L74.1681 91.7627L70.5202 85.7884ZM98.1126 82.9474L95.899 89.5882L95.9271 89.5976L95.9553 89.6067L98.1126 82.9474ZM107.168 87.777L102.807 93.2525L102.822 93.2644L102.837 93.2761L107.168 87.777ZM113.809 95.5185L107.737 99.0016L107.743 99.0118L107.748 99.022L113.809 95.5185ZM117.36 98.9233H106.28V112.923H117.36V98.9233ZM113.169 104.683C112.6 101.519 111.503 98.5461 109.784 95.8802L98.0177 103.466C98.619 104.399 99.1082 105.593 99.3909 107.163L113.169 104.683ZM109.784 95.8802C108.181 93.3939 106.191 91.2474 103.827 89.4829L95.4522 100.702C96.4501 101.447 97.3006 102.354 98.0177 103.466L109.784 95.8802ZM103.827 89.4829C101.477 87.7288 98.8678 86.4249 96.0465 85.5593L91.94 98.9435C93.2854 99.3563 94.4402 99.9463 95.4522 100.702L103.827 89.4829ZM96.068 85.566C93.2875 84.703 90.394 84.2926 87.4237 84.2926V98.2926C89.0935 98.2926 90.5797 98.5214 91.9185 98.9369L96.068 85.566ZM87.4237 84.2926C81.9962 84.2926 76.9241 85.6768 72.4112 88.5458L79.9219 100.36C82.0377 99.0155 84.4704 98.2926 87.4237 98.2926V84.2926ZM72.392 88.558C67.8308 91.4785 64.4132 95.6598 62.0212 100.739L74.6869 106.704C76.1301 103.639 77.9209 101.642 79.9411 100.348L72.392 88.558ZM62.007 100.769C59.5721 106.004 58.5131 112.046 58.5131 118.636H72.5131C72.5131 113.485 73.3481 109.583 74.7011 106.674L62.007 100.769ZM58.5131 118.636C58.5131 125.265 59.5691 131.333 62.007 136.574L74.7011 130.67C73.3511 127.768 72.5131 123.845 72.5131 118.636H58.5131ZM62.0212 136.605C64.4214 141.701 67.8678 145.884 72.4769 148.782L79.9273 136.929C77.9076 135.659 76.1219 133.687 74.6869 130.64L62.0212 136.605ZM72.4769 148.782C76.9733 151.608 82.0075 152.98 87.3881 152.98V138.98C84.4828 138.98 82.0596 138.269 79.9273 136.929L72.4769 148.782ZM87.3881 152.98C90.3171 152.98 93.1737 152.586 95.9266 151.764L91.9179 138.35C90.5515 138.758 89.052 138.98 87.3881 138.98V152.98ZM95.9755 151.749C98.7719 150.891 101.364 149.613 103.705 147.899L95.4324 136.604C94.4112 137.352 93.2392 137.944 91.869 138.365L95.9755 151.749ZM103.705 147.899C106.077 146.161 108.078 144.038 109.69 141.57L97.9697 133.913C97.2619 134.996 96.4215 135.88 95.4324 136.604L103.705 147.899ZM109.678 141.589C111.411 138.955 112.545 136.024 113.152 132.895L99.4082 130.23C99.1153 131.741 98.6166 132.93 97.982 133.894L109.678 141.589ZM106.258 138.562L117.337 138.598L117.382 124.598L106.303 124.563L106.258 138.562ZM110.454 130.455C109.99 133.258 109.105 135.761 107.826 138.018L120.005 144.922C122.134 141.166 123.546 137.088 124.266 132.741L110.454 130.455ZM107.817 138.034C106.562 140.261 104.957 142.173 102.973 143.803L111.86 154.621C115.179 151.894 117.907 148.645 120.014 144.907L107.817 138.034ZM102.979 143.798C101.019 145.405 98.7413 146.683 96.0863 147.611L100.707 160.826C104.823 159.387 108.558 157.327 111.855 154.625L102.979 143.798ZM96.0863 147.611C93.5241 148.507 90.6216 148.994 87.3171 148.994V162.994C92.0146 162.994 96.4984 162.298 100.707 160.826L96.0863 147.611ZM87.3171 148.994C82.1746 148.994 77.8407 147.792 74.1116 145.533L66.8579 157.507C72.9772 161.214 79.865 162.994 87.3171 162.994V148.994ZM74.1326 145.545C70.4102 143.273 67.3825 139.991 65.0767 135.457L52.5973 141.802C55.9733 148.442 60.7108 153.754 66.8369 157.494L74.1326 145.545ZM65.0874 135.478C62.8661 131.072 61.6112 125.538 61.6112 118.636H47.6112C47.6112 127.218 49.1734 135.012 52.5866 141.781L65.0874 135.478ZM61.6112 118.636C61.6112 111.714 62.8768 106.194 65.1068 101.827L52.6383 95.46C49.1864 102.22 47.6112 110.028 47.6112 118.636H61.6112ZM65.1122 101.816C67.416 97.2854 70.4375 94.0226 74.1471 91.7755L66.8934 79.8012C60.7545 83.52 56.0109 88.8272 52.6328 95.4707L65.1122 101.816ZM74.1681 91.7627C77.8984 89.4851 82.2141 88.2784 87.3171 88.2784V74.2784C79.8728 74.2784 72.9905 76.0784 66.8724 79.814L74.1681 91.7627ZM87.3171 88.2784C90.496 88.2784 93.3403 88.7353 95.899 89.5882L100.326 76.3067C96.2087 74.9342 91.856 74.2784 87.3171 74.2784V88.2784ZM95.9553 89.6067C98.5444 90.4455 100.811 91.663 102.807 93.2525L111.529 82.3015C108.174 79.6297 104.404 77.6275 100.27 76.2881L95.9553 89.6067ZM102.837 93.2761C104.784 94.8099 106.415 96.698 107.737 99.0016L119.88 92.0354C117.698 88.231 114.902 84.9581 111.499 82.2778L102.837 93.2761ZM107.748 99.022C109.017 101.217 109.946 103.847 110.445 107.013L124.274 104.834C123.542 100.187 122.104 95.8808 119.869 92.0149L107.748 99.022ZM182.895 105.923V112.923H191.084L189.81 104.834L182.895 105.923ZM171.815 105.923L164.926 107.163L165.963 112.923H171.815V105.923ZM165.175 95.0923L169.362 89.4829L169.362 89.4829L165.175 95.0923ZM159.528 92.2514L157.454 98.9369L157.464 98.9402L157.475 98.9435L159.528 92.2514ZM141.702 94.4531L137.946 88.5458L137.937 88.5519L137.927 88.558L141.702 94.4531ZM133.889 103.722L127.556 100.739L127.549 100.754L127.542 100.769L133.889 103.722ZM133.889 133.622L127.542 136.574L127.549 136.589L127.556 136.605L133.889 133.622ZM141.737 142.855L138.012 148.782L138.012 148.782L141.737 142.855ZM159.457 145.057L161.462 151.764L161.486 151.756L161.511 151.749L159.457 145.057ZM165.104 142.251L160.968 136.604L165.104 142.251ZM169.365 137.741L163.517 133.894L163.511 133.903L163.505 133.913L169.365 137.741ZM171.815 131.562L171.838 124.563L166.046 124.544L164.943 130.23L171.815 131.562ZM182.895 131.598L189.801 132.741L191.145 124.624L182.917 124.598L182.895 131.598ZM179.45 141.47L173.361 138.018L173.356 138.026L173.352 138.034L179.45 141.47ZM172.952 149.212L177.39 154.625L177.395 154.621L172.952 149.212ZM163.932 154.219L166.242 160.826L166.242 160.826L163.932 154.219ZM136.02 151.52L132.372 157.494L132.383 157.501L132.393 157.507L136.02 151.52ZM124.372 138.629L118.122 141.781L118.127 141.791L118.132 141.802L124.372 138.629ZM124.408 98.6435L130.642 101.827L130.647 101.816L124.408 98.6435ZM136.055 85.7884L139.682 91.7755L139.693 91.7691L139.703 91.7627L136.055 85.7884ZM163.648 82.9474L161.434 89.5882L161.462 89.5976L161.49 89.6067L163.648 82.9474ZM172.703 87.777L168.342 93.2525L168.357 93.2644L168.372 93.2761L172.703 87.777ZM179.344 95.5185L173.272 99.0016L173.278 99.0118L173.284 99.022L179.344 95.5185ZM182.895 98.9233H171.815V112.923H182.895V98.9233ZM178.705 104.683C178.135 101.519 177.038 98.5461 175.319 95.8802L163.553 103.466C164.154 104.399 164.643 105.593 164.926 107.163L178.705 104.683ZM175.319 95.8802C173.716 93.3939 171.726 91.2474 169.362 89.4829L160.987 100.702C161.985 101.447 162.836 102.354 163.553 103.466L175.319 95.8802ZM169.362 89.4829C167.012 87.7288 164.403 86.4249 161.582 85.5593L157.475 98.9435C158.821 99.3563 159.975 99.9463 160.987 100.702L169.362 89.4829ZM161.603 85.566C158.823 84.703 155.929 84.2926 152.959 84.2926V98.2926C154.629 98.2926 156.115 98.5214 157.454 98.9369L161.603 85.566ZM152.959 84.2926C147.531 84.2926 142.459 85.6768 137.946 88.5458L145.457 100.36C147.573 99.0155 150.006 98.2926 152.959 98.2926V84.2926ZM137.927 88.558C133.366 91.4785 129.948 95.6598 127.556 100.739L140.222 106.704C141.665 103.639 143.456 101.642 145.476 100.348L137.927 88.558ZM127.542 100.769C125.107 106.004 124.048 112.046 124.048 118.636H138.048C138.048 113.485 138.883 109.583 140.236 106.674L127.542 100.769ZM124.048 118.636C124.048 125.265 125.104 131.333 127.542 136.574L140.236 130.67C138.886 127.768 138.048 123.845 138.048 118.636H124.048ZM127.556 136.605C129.957 141.701 133.403 145.884 138.012 148.782L145.462 136.929C143.443 135.659 141.657 133.687 140.222 130.64L127.556 136.605ZM138.012 148.782C142.508 151.608 147.543 152.98 152.923 152.98V138.98C150.018 138.98 147.595 138.269 145.462 136.929L138.012 148.782ZM152.923 152.98C155.852 152.98 158.709 152.586 161.462 151.764L157.453 138.35C156.087 138.758 154.587 138.98 152.923 138.98V152.98ZM161.511 151.749C164.307 150.891 166.899 149.613 169.24 147.899L160.968 136.604C159.946 137.352 158.774 137.944 157.404 138.365L161.511 151.749ZM169.24 147.899C171.612 146.161 173.613 144.038 175.225 141.57L163.505 133.913C162.797 134.996 161.957 135.88 160.968 136.604L169.24 147.899ZM175.213 141.589C176.946 138.955 178.081 136.024 178.687 132.895L164.943 130.23C164.65 131.741 164.152 132.93 163.517 133.894L175.213 141.589ZM171.793 138.562L182.872 138.598L182.917 124.598L171.838 124.563L171.793 138.562ZM175.989 130.455C175.525 133.258 174.64 135.761 173.361 138.018L185.54 144.922C187.669 141.166 189.081 137.088 189.801 132.741L175.989 130.455ZM173.352 138.034C172.097 140.261 170.493 142.173 168.509 143.803L177.395 154.621C180.714 151.894 183.442 148.645 185.549 144.907L173.352 138.034ZM168.514 143.798C166.554 145.405 164.276 146.683 161.621 147.611L166.242 160.826C170.358 159.387 174.094 157.327 177.39 154.625L168.514 143.798ZM161.621 147.611C159.059 148.507 156.157 148.994 152.852 148.994V162.994C157.55 162.994 162.034 162.298 166.242 160.826L161.621 147.611ZM152.852 148.994C147.71 148.994 143.376 147.792 139.647 145.533L132.393 157.507C138.512 161.214 145.4 162.994 152.852 162.994V148.994ZM139.668 145.545C135.945 143.273 132.918 139.991 130.612 135.457L118.132 141.802C121.508 148.442 126.246 153.754 132.372 157.494L139.668 145.545ZM130.623 135.478C128.401 131.072 127.146 125.538 127.146 118.636H113.146C113.146 127.218 114.709 135.012 118.122 141.781L130.623 135.478ZM127.146 118.636C127.146 111.714 128.412 106.194 130.642 101.827L118.173 95.46C114.722 102.22 113.146 110.028 113.146 118.636H127.146ZM130.647 101.816C132.951 97.2854 135.973 94.0226 139.682 91.7755L132.429 79.8012C126.29 83.52 121.546 88.8272 118.168 95.4707L130.647 101.816ZM139.703 91.7627C143.434 89.4851 147.749 88.2784 152.852 88.2784V74.2784C145.408 74.2784 138.526 76.0784 132.408 79.814L139.703 91.7627ZM152.852 88.2784C156.031 88.2784 158.875 88.7353 161.434 89.5882L165.861 76.3067C161.744 74.9342 157.391 74.2784 152.852 74.2784V88.2784ZM161.49 89.6067C164.08 90.4455 166.346 91.663 168.342 93.2525L177.064 82.3015C173.71 79.6297 169.939 77.6275 165.805 76.2881L161.49 89.6067ZM168.372 93.2761C170.319 94.8099 171.95 96.698 173.272 99.0016L185.416 92.0354C183.233 88.231 180.437 84.9581 177.034 82.2778L168.372 93.2761ZM173.284 99.022C174.552 101.217 175.481 103.847 175.98 107.013L189.81 104.834C189.077 100.187 187.639 95.8808 185.404 92.0149L173.284 99.022Z" fill="#78D023"/>
</svg>
