<svg width="237" height="237" viewBox="0 0 237 237" fill="none" xmlns="http://www.w3.org/2000/svg">
<rect width="237" height="237" fill="#8CD6FF"/>
<circle cx="118.5" cy="118.5" r="97.5" fill="white"/>
<path d="M155.637 96.3499C151.995 77.8719 135.767 64 116.271 64C100.793 64 87.3492 72.7837 80.6543 85.638C64.5329 87.3519 52 101.01 52 117.559C52 135.288 66.4075 149.695 84.1356 149.695H153.763C168.545 149.695 180.543 137.698 180.543 122.915C180.543 108.776 169.563 97.3139 155.637 96.3499Z" fill="#8CD6FF"/>
<circle cx="169.831" cy="157.729" r="33.4746" fill="white"/>
<path d="M176.749 159.896C175.109 159.896 173.642 160.541 172.521 161.552L157.139 152.626C157.247 152.131 157.333 151.636 157.333 151.12C157.333 150.604 157.247 150.109 157.139 149.614L172.348 140.774C173.513 141.849 175.045 142.516 176.749 142.516C180.33 142.516 183.221 139.634 183.221 136.063C183.221 132.493 180.33 129.61 176.749 129.61C173.168 129.61 170.277 132.493 170.277 136.063C170.277 136.579 170.363 137.074 170.471 137.569L155.263 146.409C154.098 145.334 152.566 144.667 150.862 144.667C147.281 144.667 144.39 147.549 144.39 151.12C144.39 154.691 147.281 157.573 150.862 157.573C152.566 157.573 154.098 156.906 155.263 155.831L170.622 164.779C170.514 165.23 170.45 165.704 170.45 166.177C170.45 169.64 173.276 172.458 176.749 172.458C180.222 172.458 183.048 169.64 183.048 166.177C183.048 162.714 180.222 159.896 176.749 159.896Z" fill="#8CD6FF"/>
</svg>
