<svg width="237" height="237" viewBox="0 0 237 237" fill="none" xmlns="http://www.w3.org/2000/svg">
<rect width="237" height="237" fill="#F3E672"/>
<circle cx="118.5" cy="118.5" r="97.5" fill="white"/>
<path d="M125.752 57H81.375C74.5687 57 69 62.535 69 69.3V167.7C69 174.465 74.5687 180 81.375 180H155.625C162.431 180 168 174.465 168 167.7V98.9922C168 95.7327 166.694 92.6024 164.374 90.2961L134.501 60.6039C132.181 58.2976 129.031 57 125.752 57ZM137.062 155.4H99.9375C96.522 155.4 93.75 152.645 93.75 149.25C93.75 145.855 96.522 143.1 99.9375 143.1H137.062C140.478 143.1 143.25 145.855 143.25 149.25C143.25 152.645 140.478 155.4 137.062 155.4ZM137.062 130.8H99.9375C96.522 130.8 93.75 128.045 93.75 124.65C93.75 121.255 96.522 118.5 99.9375 118.5H137.062C140.478 118.5 143.25 121.255 143.25 124.65C143.25 128.045 140.478 130.8 137.062 130.8ZM124.688 100.05V66.225L158.719 100.05H124.688Z" fill="#F3E672"/>
</svg>
