<svg width="237" height="237" viewBox="0 0 237 237" fill="none" xmlns="http://www.w3.org/2000/svg">
<path d="M0 0H237V237H0V0Z" fill="url(#paint0_linear_22_14)"/>
<circle cx="118.5" cy="118.5" r="97.5" fill="white"/>
<g clip-path="url(#clip0_22_14)">
<path d="M99.5753 76.0445V160.222L175.137 160.226V76.0445H99.5753Z" fill="url(#paint1_linear_22_14)"/>
<path d="M122.085 81.2427C122.835 81.2427 123.438 80.5994 123.438 79.8118C123.438 79.0182 122.835 78.3789 122.085 78.3789C121.341 78.3789 120.732 79.0182 120.732 79.8118C120.732 80.5994 121.341 81.2427 122.085 81.2427Z" fill="white"/>
<path d="M138.085 123.716C138.085 124.062 138.348 124.343 138.673 124.341C138.831 124.33 138.98 124.259 139.088 124.143C139.197 124.027 139.257 123.875 139.258 123.716C139.258 123.375 138.995 123.103 138.673 123.103C138.594 123.104 138.516 123.121 138.444 123.153C138.372 123.185 138.306 123.23 138.252 123.287C138.197 123.344 138.154 123.411 138.126 123.485C138.097 123.558 138.084 123.637 138.085 123.716Z" fill="white"/>
<path d="M138.741 135.993C138.374 135.993 138.067 136.313 138.067 136.708C138.067 137.101 138.374 137.419 138.741 137.419C139.114 137.419 139.412 137.101 139.412 136.708C139.412 136.313 139.114 135.993 138.741 135.993Z" fill="white"/>
<path d="M126.178 91.6997C126.048 91.703 125.921 91.7318 125.803 91.7845C125.685 91.8371 125.579 91.9125 125.49 92.0063C125.401 92.1001 125.332 92.2106 125.286 92.3313C125.24 92.4519 125.218 92.5805 125.222 92.7097C125.222 93.2708 125.646 93.7337 126.178 93.7277C126.436 93.7091 126.677 93.594 126.855 93.4054C127.032 93.2168 127.131 92.9684 127.134 92.7097C127.137 92.5805 127.116 92.4519 127.07 92.3313C127.023 92.2106 126.954 92.1001 126.865 92.0063C126.776 91.9125 126.67 91.8371 126.552 91.7845C126.434 91.7318 126.307 91.703 126.178 91.6997Z" fill="white"/>
<path d="M135.542 114.573C135.542 113.998 135.103 113.539 134.568 113.539C134.435 113.542 134.304 113.571 134.183 113.625C134.062 113.678 133.952 113.755 133.861 113.852C133.769 113.948 133.698 114.061 133.65 114.185C133.602 114.309 133.58 114.441 133.584 114.573C133.584 115.149 134.021 115.619 134.568 115.611C135.057 115.607 135.542 115.149 135.542 114.573Z" fill="white"/>
<path d="M134.545 125.215C134.874 125.193 135.184 125.047 135.411 124.807C135.638 124.567 135.767 124.251 135.771 123.92C135.771 123.205 135.222 122.63 134.545 122.63C133.871 122.63 133.322 123.205 133.322 123.92C133.322 124.632 133.871 125.221 134.545 125.215Z" fill="white"/>
<path d="M134.111 119.349C134.111 119.64 134.329 119.878 134.604 119.874C134.736 119.864 134.86 119.804 134.951 119.707C135.042 119.61 135.092 119.482 135.093 119.349C135.093 119.062 134.87 118.826 134.604 118.826C134.329 118.826 134.111 119.062 134.111 119.349Z" fill="white"/>
<path d="M130.272 118.159C130.127 118.162 129.985 118.194 129.852 118.253C129.72 118.311 129.6 118.396 129.5 118.501C129.401 118.606 129.322 118.73 129.271 118.865C129.219 119 129.194 119.144 129.198 119.289C129.198 119.916 129.675 120.437 130.272 120.429C130.814 120.417 131.343 119.916 131.343 119.289C131.343 118.664 130.858 118.159 130.272 118.159Z" fill="white"/>
<path d="M139.219 114.754C139.222 114.635 139.178 114.521 139.097 114.435C139.016 114.349 138.904 114.298 138.786 114.295C138.726 114.296 138.668 114.308 138.614 114.332C138.56 114.356 138.511 114.39 138.47 114.433C138.429 114.475 138.397 114.525 138.375 114.581C138.354 114.636 138.343 114.694 138.345 114.754C138.345 115.008 138.543 115.219 138.786 115.213C139.004 115.213 139.219 115.008 139.219 114.754Z" fill="white"/>
<path d="M138.633 102.512C138.845 102.497 139.043 102.404 139.189 102.251C139.335 102.097 139.418 101.894 139.421 101.682C139.427 101.467 139.347 101.26 139.199 101.104C139.051 100.949 138.848 100.858 138.633 100.852C138.419 100.858 138.215 100.949 138.067 101.104C137.919 101.259 137.839 101.467 137.844 101.682C137.844 102.139 138.198 102.522 138.633 102.512Z" fill="white"/>
<path d="M138.621 107.203C139.18 107.195 139.731 106.67 139.731 106.028C139.731 105.377 139.234 104.854 138.621 104.854C138.005 104.854 137.51 105.377 137.51 106.028C137.51 106.67 138.005 107.207 138.621 107.203Z" fill="white"/>
<path d="M139.615 110.239C139.615 109.682 139.188 109.227 138.663 109.227C138.136 109.227 137.707 109.682 137.707 110.239C137.707 110.792 138.136 111.259 138.663 111.245C138.919 111.228 139.159 111.115 139.336 110.928C139.512 110.742 139.612 110.496 139.615 110.239Z" fill="white"/>
<path d="M109.466 80.5974C109.985 80.5974 110.406 80.1545 110.406 79.6054C110.406 79.0583 109.985 78.6154 109.466 78.6154C108.95 78.6154 108.531 79.0583 108.531 79.6054C108.531 80.1545 108.95 80.5974 109.466 80.5974Z" fill="white"/>
<path d="M113.895 80.5974C114.328 80.5974 114.679 80.2227 114.679 79.7617C114.685 79.5479 114.605 79.3404 114.458 79.1848C114.312 79.0293 114.109 78.9384 113.895 78.9321C113.68 78.9378 113.477 79.0284 113.329 79.1839C113.181 79.3394 113.1 79.5471 113.105 79.7617C113.105 80.2227 113.46 80.5974 113.895 80.5974Z" fill="white"/>
<path d="M126.228 96.4293C126.117 96.4319 126.007 96.4564 125.906 96.5013C125.804 96.5462 125.712 96.6107 125.635 96.6911C125.559 96.7715 125.499 96.8662 125.459 96.9698C125.419 97.0735 125.399 97.184 125.402 97.295C125.402 97.774 125.771 98.1688 126.228 98.1628C126.448 98.1472 126.655 98.0493 126.806 97.8885C126.958 97.7278 127.043 97.5159 127.046 97.295C127.049 97.1845 127.03 97.0744 126.991 96.971C126.951 96.8677 126.892 96.7731 126.816 96.6927C126.74 96.6123 126.649 96.5477 126.548 96.5025C126.447 96.4573 126.338 96.4324 126.228 96.4293Z" fill="white"/>
<path d="M130.557 98.0784C130.757 98.0642 130.943 97.9755 131.08 97.8299C131.217 97.6843 131.293 97.4925 131.295 97.2928C131.3 97.0922 131.225 96.8979 131.087 96.7525C130.948 96.6071 130.758 96.5225 130.557 96.5172C130.458 96.5193 130.36 96.541 130.268 96.5812C130.177 96.6214 130.095 96.6791 130.026 96.7512C129.957 96.8233 129.904 96.9082 129.868 97.0012C129.832 97.0941 129.815 97.1932 129.818 97.2928C129.818 97.7216 130.148 98.0804 130.557 98.0784Z" fill="white"/>
<path d="M134.653 97.9626C134.823 97.951 134.982 97.8758 135.098 97.752C135.214 97.6283 135.28 97.4651 135.281 97.2953C135.281 96.9286 135 96.632 134.653 96.632C134.482 96.6372 134.32 96.7099 134.203 96.8342C134.085 96.9585 134.022 97.1243 134.026 97.2953C134.026 97.666 134.311 97.9646 134.653 97.9626Z" fill="white"/>
<path d="M130.436 84.4753C130.694 84.4753 130.907 84.2449 130.907 83.9703C130.907 83.6958 130.694 83.4693 130.436 83.4693C130.173 83.4693 129.963 83.6958 129.963 83.9703C129.963 84.2449 130.173 84.4753 130.436 84.4753Z" fill="white"/>
<path d="M130.436 88.8496C130.694 88.8496 130.907 88.6252 130.907 88.3446C130.907 88.07 130.694 87.8456 130.436 87.8456C130.307 87.8493 130.185 87.9038 130.096 87.9974C130.008 88.0909 129.96 88.2158 129.963 88.3446C129.963 88.6252 130.173 88.8496 130.436 88.8496Z" fill="white"/>
<path d="M126.232 80.5974C126.669 80.5974 127.02 80.2227 127.02 79.7617C127.023 79.6555 127.005 79.5497 126.967 79.4505C126.929 79.3513 126.872 79.2605 126.798 79.1834C126.725 79.1063 126.638 79.0445 126.54 79.0013C126.443 78.9582 126.339 78.9347 126.232 78.9321C126.126 78.9349 126.022 78.9587 125.925 79.0019C125.828 79.0451 125.741 79.1071 125.668 79.1841C125.595 79.2612 125.538 79.3518 125.5 79.4509C125.462 79.5501 125.444 79.6557 125.447 79.7617C125.447 80.2227 125.797 80.5974 126.232 80.5974Z" fill="white"/>
<path d="M118.115 81.1523C118.807 81.1523 119.37 80.5592 119.37 79.8277C119.37 79.0882 118.807 78.493 118.115 78.493C117.42 78.493 116.857 79.0882 116.857 79.8277C116.857 80.5592 117.42 81.1523 118.115 81.1523Z" fill="white"/>
<path d="M138.615 129.145C139.174 129.145 139.629 128.658 139.629 128.066C139.633 127.929 139.61 127.793 139.561 127.665C139.512 127.537 139.439 127.419 139.344 127.32C139.25 127.22 139.137 127.14 139.012 127.084C138.887 127.028 138.752 126.998 138.615 126.994C138.477 126.998 138.342 127.028 138.216 127.084C138.091 127.139 137.977 127.219 137.883 127.319C137.788 127.419 137.714 127.536 137.664 127.664C137.615 127.792 137.591 127.929 137.595 128.066C137.595 128.658 138.054 129.145 138.615 129.145Z" fill="white"/>
<path d="M138.673 131.253C138.379 131.261 138.101 131.385 137.899 131.598C137.697 131.81 137.587 132.094 137.594 132.388C137.594 133.013 138.079 133.52 138.673 133.52C139.266 133.52 139.743 133.013 139.743 132.388C139.743 131.76 139.266 131.253 138.673 131.253Z" fill="white"/>
<path d="M109.562 152.935C108.849 152.935 108.274 153.544 108.274 154.297C108.274 155.057 108.849 155.662 109.562 155.662C110.276 155.662 110.849 155.057 110.849 154.297C110.849 153.544 110.276 152.935 109.562 152.935Z" fill="white"/>
<path d="M134.57 135.301C133.89 135.301 133.341 135.883 133.341 136.598C133.341 137.318 133.89 137.899 134.57 137.899C135.247 137.899 135.797 137.318 135.797 136.598C135.797 135.883 135.247 135.301 134.57 135.301Z" fill="white"/>
<path d="M126.935 141.163C126.935 140.714 126.596 140.351 126.169 140.351C125.751 140.351 125.408 140.714 125.408 141.163C125.408 141.607 125.751 141.97 126.169 141.97C126.596 141.97 126.935 141.607 126.935 141.163Z" fill="white"/>
<path d="M125.042 145.812C125.042 146.432 125.515 146.931 126.1 146.931C126.687 146.931 127.164 146.432 127.164 145.812C127.171 145.523 127.063 145.242 126.864 145.032C126.664 144.822 126.389 144.7 126.1 144.692C125.515 144.692 125.042 145.193 125.042 145.812Z" fill="white"/>
<path d="M126.061 153.055C125.402 153.055 124.873 153.622 124.873 154.317C124.873 155.005 125.402 155.57 126.061 155.57C126.717 155.57 127.246 155.005 127.246 154.317C127.246 153.622 126.717 153.055 126.061 153.055Z" fill="white"/>
<path d="M130.42 153.951C130.355 153.952 130.291 153.967 130.231 153.994C130.171 154.02 130.117 154.058 130.072 154.106C130.027 154.153 129.992 154.209 129.969 154.27C129.946 154.331 129.935 154.397 129.937 154.462C129.937 154.744 130.152 154.971 130.42 154.971C130.689 154.971 130.903 154.744 130.903 154.462C130.905 154.397 130.895 154.331 130.871 154.27C130.848 154.209 130.813 154.153 130.768 154.106C130.723 154.058 130.67 154.02 130.61 153.994C130.55 153.967 130.486 153.952 130.42 153.951Z" fill="white"/>
<path d="M130.379 149.546C130.088 149.546 129.856 149.794 129.856 150.103C129.856 150.413 130.088 150.662 130.379 150.662C130.67 150.662 130.904 150.413 130.904 150.103C130.904 149.794 130.67 149.546 130.379 149.546Z" fill="white"/>
<path d="M130.545 140.56C130.255 140.56 130.02 140.811 130.02 141.119C130.02 141.426 130.255 141.676 130.545 141.676C130.836 141.676 131.073 141.426 131.073 141.119C131.073 140.811 130.836 140.56 130.545 140.56Z" fill="white"/>
<path d="M134.74 140.676C134.508 140.676 134.323 140.878 134.323 141.119C134.323 141.359 134.508 141.554 134.74 141.554C134.965 141.554 135.151 141.359 135.151 141.119C135.151 140.878 134.965 140.676 134.74 140.676Z" fill="white"/>
<path d="M132.664 109.449C132.066 109.461 131.581 108.94 131.581 108.305C131.581 107.674 132.066 107.163 132.664 107.163C132.959 107.17 133.239 107.295 133.443 107.509C133.647 107.723 133.757 108.009 133.75 108.305C133.75 108.94 133.207 109.445 132.664 109.449ZM128.543 114.181C127.843 114.193 127.274 113.583 127.274 112.844C127.274 112.102 127.843 111.501 128.543 111.501C129.242 111.501 129.812 112.102 129.812 112.844C129.812 113.583 129.182 114.171 128.543 114.181ZM128.531 107.487C128.896 107.487 129.192 107.804 129.192 108.185C129.192 108.571 128.861 108.884 128.531 108.888C128.162 108.894 127.865 108.571 127.865 108.185C127.865 107.804 128.162 107.487 128.531 107.487ZM128.563 124.529C129.126 124.529 129.579 125.016 129.579 125.604C129.579 126.197 129.126 126.682 128.563 126.682C128.002 126.682 127.545 126.197 127.545 125.604C127.545 125.016 128.002 124.529 128.563 124.529ZM128.445 130.972C128.084 130.972 127.795 130.66 127.795 130.281C127.795 129.898 128.084 129.592 128.445 129.592C128.805 129.592 129.098 129.898 129.098 130.281C129.098 130.66 128.805 130.972 128.445 130.972ZM132.686 129.153C133.275 129.153 133.752 129.658 133.752 130.281C133.752 130.898 133.275 131.407 132.686 131.407C132.096 131.407 131.617 130.898 131.617 130.281C131.617 129.658 132.096 129.153 132.686 129.153ZM124.508 118.171C123.909 118.179 123.422 117.654 123.422 117.022C123.422 116.393 123.909 115.88 124.508 115.88C125.105 115.88 125.588 116.393 125.588 117.022C125.588 117.654 125.053 118.163 124.508 118.171ZM124.452 122.419C123.901 122.419 123.448 121.94 123.448 121.353C123.448 120.764 123.901 120.293 124.452 120.293C124.588 120.296 124.722 120.326 124.846 120.381C124.97 120.436 125.083 120.515 125.176 120.614C125.27 120.712 125.343 120.828 125.392 120.955C125.441 121.082 125.464 121.217 125.46 121.353C125.46 121.94 125.009 122.419 124.452 122.419ZM124.265 126.385C124.113 126.38 123.968 126.316 123.863 126.205C123.758 126.094 123.701 125.947 123.704 125.794C123.704 125.465 123.957 125.199 124.265 125.199C124.572 125.199 124.823 125.465 124.823 125.794C124.823 126.119 124.572 126.385 124.265 126.385ZM124.265 130.888C124.113 130.884 123.969 130.82 123.863 130.709C123.758 130.599 123.701 130.451 123.704 130.299C123.704 129.972 123.957 129.71 124.265 129.71C124.341 129.712 124.415 129.729 124.484 129.76C124.552 129.79 124.614 129.834 124.666 129.889C124.718 129.944 124.758 130.008 124.785 130.078C124.812 130.149 124.825 130.224 124.823 130.299C124.826 130.451 124.77 130.598 124.666 130.708C124.561 130.819 124.417 130.883 124.265 130.888ZM123.786 108.173C123.786 107.94 123.963 107.754 124.183 107.754C124.398 107.754 124.576 107.94 124.576 108.173C124.576 108.405 124.378 108.589 124.183 108.591C123.963 108.595 123.786 108.405 123.786 108.173ZM124.296 111.922C124.502 111.928 124.698 112.015 124.84 112.165C124.983 112.315 125.06 112.515 125.055 112.722C125.055 113.171 124.678 113.527 124.296 113.529C123.873 113.535 123.532 113.171 123.532 112.722C123.532 112.283 123.873 111.922 124.296 111.922ZM124.346 102.357C124.989 102.357 125.506 102.904 125.506 103.581C125.506 104.265 124.933 104.806 124.346 104.812C123.704 104.826 123.185 104.265 123.185 103.581C123.185 102.904 123.704 102.357 124.346 102.357ZM120.243 100.647C119.537 100.658 118.966 100.046 118.966 99.3008C118.966 98.5553 119.537 97.9521 120.243 97.9521C120.944 97.9521 121.512 98.5553 121.512 99.3008C121.512 100.046 120.884 100.635 120.243 100.647ZM119.471 103.672C119.467 103.47 119.542 103.275 119.681 103.13C119.82 102.984 120.011 102.899 120.213 102.894C120.312 102.896 120.41 102.918 120.501 102.959C120.593 102.999 120.675 103.057 120.743 103.129C120.812 103.202 120.865 103.287 120.901 103.38C120.936 103.473 120.953 103.572 120.95 103.672C120.95 103.871 120.874 104.064 120.737 104.209C120.6 104.355 120.412 104.443 120.213 104.455C119.804 104.463 119.471 104.106 119.471 103.672ZM120.141 135.692C119.623 135.692 119.201 135.243 119.201 134.698C119.201 134.147 119.623 133.702 120.141 133.702C120.66 133.702 121.083 134.147 121.083 134.698C121.089 134.954 120.993 135.203 120.816 135.389C120.64 135.575 120.397 135.684 120.141 135.692ZM116.008 139.638C115.863 139.634 115.726 139.573 115.627 139.469C115.527 139.365 115.473 139.225 115.476 139.081C115.474 139.009 115.486 138.938 115.512 138.871C115.538 138.804 115.576 138.743 115.626 138.691C115.675 138.639 115.734 138.598 115.8 138.569C115.865 138.54 115.936 138.525 116.008 138.524C116.079 138.525 116.149 138.541 116.215 138.57C116.28 138.599 116.339 138.64 116.388 138.692C116.437 138.744 116.476 138.805 116.501 138.871C116.527 138.938 116.539 139.009 116.537 139.081C116.539 139.152 116.526 139.223 116.501 139.29C116.475 139.356 116.437 139.417 116.388 139.469C116.338 139.521 116.28 139.562 116.214 139.591C116.149 139.62 116.079 139.636 116.008 139.638ZM115.476 143.439C115.476 143.169 115.685 142.95 115.937 142.95C116.192 142.95 116.396 143.169 116.396 143.439C116.398 143.501 116.388 143.563 116.366 143.621C116.344 143.679 116.31 143.732 116.268 143.777C116.225 143.822 116.174 143.859 116.117 143.884C116.061 143.909 115.999 143.923 115.937 143.924C115.812 143.921 115.693 143.868 115.607 143.777C115.521 143.686 115.474 143.565 115.476 143.439ZM115.897 148.508C115.607 148.508 115.366 148.253 115.366 147.944C115.366 147.638 115.607 147.385 115.897 147.385C116.186 147.385 116.425 147.638 116.425 147.944C116.425 148.253 116.186 148.508 115.897 148.508ZM111.648 148.892C111.428 148.886 111.219 148.792 111.067 148.631C110.915 148.471 110.833 148.257 110.838 148.037C110.838 147.566 111.201 147.173 111.648 147.173C112.095 147.173 112.46 147.566 112.46 148.037C112.465 148.258 112.383 148.472 112.231 148.632C112.079 148.792 111.869 148.886 111.648 148.892ZM107.593 148.684C107.237 148.684 106.952 148.379 106.952 148.003C106.952 147.634 107.237 147.325 107.593 147.325C107.948 147.325 108.235 147.634 108.235 148.003C108.235 148.379 107.948 148.684 107.593 148.684ZM103.697 157.8C103.108 157.8 102.635 157.299 102.635 156.67C102.635 156.053 103.108 155.548 103.697 155.548C104.284 155.548 104.759 156.053 104.759 156.67C104.759 157.299 104.284 157.8 103.697 157.8ZM102.955 147.944C102.955 147.7 103.142 147.5 103.372 147.5C103.607 147.5 103.793 147.7 103.793 147.944C103.793 148.191 103.607 148.391 103.372 148.391C103.142 148.391 102.955 148.191 102.955 147.944ZM103.569 151.536C103.786 151.541 103.992 151.633 104.142 151.79C104.292 151.948 104.373 152.158 104.368 152.375C104.372 152.483 104.353 152.591 104.315 152.692C104.276 152.793 104.218 152.886 104.144 152.964C104.07 153.043 103.981 153.106 103.882 153.15C103.783 153.194 103.677 153.218 103.569 153.221C103.128 153.221 102.773 152.848 102.773 152.375C102.773 151.912 103.128 151.536 103.569 151.536ZM103.583 80.5972C104.158 80.5972 104.629 81.0962 104.629 81.7055C104.629 82.3207 104.158 82.8177 103.583 82.8177C103.001 82.8177 102.53 82.3207 102.53 81.7055C102.53 81.0962 103.001 80.5972 103.583 80.5972ZM103.655 76.1944C104.274 76.1944 104.779 76.7275 104.779 77.3828C104.779 78.0401 104.274 78.5752 103.655 78.5752C103.031 78.5752 102.53 78.0401 102.53 77.3828C102.53 76.7275 103.031 76.1944 103.655 76.1944ZM107.643 84.6534C108.339 84.6534 108.904 85.2506 108.904 85.9861C108.904 86.7215 108.339 87.3207 107.643 87.3207C106.946 87.3207 106.381 86.7215 106.381 85.9861C106.381 85.2506 106.946 84.6534 107.643 84.6534ZM111.766 89.6474C112.185 89.6474 112.524 90.0121 112.524 90.453C112.524 90.8939 112.151 91.2526 111.766 91.2566C111.35 91.2647 111.005 90.8939 111.005 90.453C111.005 90.0121 111.35 89.6474 111.766 89.6474ZM106.986 90.453C106.986 90.0943 107.263 89.8037 107.599 89.8037C107.944 89.8037 108.221 90.0943 108.221 90.453C108.218 90.6202 108.153 90.7803 108.038 90.9017C107.923 91.0231 107.766 91.0968 107.599 91.1083C107.263 91.1103 106.986 90.8117 106.986 90.453ZM102.829 86.0923C102.829 85.6875 103.14 85.3588 103.523 85.3588C103.616 85.3614 103.709 85.3824 103.794 85.4207C103.88 85.459 103.957 85.5137 104.021 85.5818C104.086 85.65 104.136 85.7301 104.169 85.8177C104.203 85.9053 104.219 85.9986 104.216 86.0923C104.219 86.186 104.203 86.2793 104.169 86.3669C104.136 86.4544 104.086 86.5346 104.021 86.6027C103.957 86.6708 103.88 86.7256 103.794 86.7638C103.709 86.8021 103.616 86.8231 103.523 86.8257C103.333 86.82 103.154 86.7396 103.024 86.6021C102.894 86.4647 102.824 86.2814 102.829 86.0923ZM115.805 84.7736C116.423 84.7736 116.918 85.2987 116.918 85.944C116.918 86.5913 116.366 87.1123 115.805 87.1183C115.196 87.1243 114.701 86.5913 114.701 85.944C114.701 85.2987 115.196 84.7736 115.805 84.7736ZM115.38 90.453C115.38 90.1665 115.599 89.936 115.873 89.936C115.94 89.9375 116.005 89.9522 116.066 89.979C116.126 90.0058 116.181 90.0443 116.227 90.0924C116.273 90.1404 116.309 90.1969 116.333 90.2588C116.356 90.3207 116.368 90.3867 116.366 90.453C116.365 90.5859 116.313 90.7133 116.222 90.8099C116.13 90.9064 116.006 90.965 115.873 90.9741C115.599 90.9781 115.38 90.7396 115.38 90.453ZM115.873 94.4571C115.94 94.4589 116.006 94.4738 116.066 94.501C116.127 94.5282 116.182 94.567 116.228 94.6154C116.274 94.6638 116.309 94.7208 116.333 94.783C116.357 94.8452 116.368 94.9115 116.366 94.9781C116.366 95.2647 116.122 95.4951 115.873 95.4951C115.599 95.5012 115.38 95.2647 115.38 94.9781C115.38 94.6895 115.599 94.4571 115.873 94.4571ZM120.123 151.333C120.704 151.333 121.177 151.832 121.177 152.452C121.177 153.071 120.704 153.576 120.123 153.576C119.535 153.576 119.06 153.071 119.06 152.452C119.06 151.832 119.535 151.333 120.123 151.333ZM120.227 146.938C120.344 146.941 120.46 146.967 120.568 147.015C120.675 147.062 120.772 147.131 120.853 147.216C120.934 147.301 120.997 147.402 121.039 147.512C121.081 147.622 121.1 147.739 121.097 147.856C121.1 147.974 121.08 148.09 121.038 148.2C120.996 148.309 120.933 148.41 120.852 148.495C120.771 148.58 120.674 148.648 120.567 148.696C120.46 148.743 120.344 148.769 120.227 148.772C120.109 148.769 119.994 148.743 119.887 148.696C119.779 148.648 119.683 148.58 119.602 148.495C119.521 148.41 119.458 148.309 119.416 148.2C119.374 148.09 119.354 147.974 119.357 147.856C119.357 147.345 119.744 146.938 120.227 146.938ZM120.233 89.6755C120.365 89.6786 120.494 89.7077 120.615 89.7611C120.735 89.8144 120.844 89.8911 120.935 89.9866C121.026 90.0821 121.097 90.1946 121.144 90.3176C121.192 90.4406 121.214 90.5718 121.211 90.7035C121.209 90.9681 121.107 91.2221 120.925 91.4148C120.744 91.6076 120.497 91.725 120.233 91.7436C119.696 91.7456 119.257 91.2767 119.257 90.7035C119.253 90.5719 119.276 90.4409 119.323 90.318C119.37 90.1951 119.441 90.0827 119.532 89.9873C119.622 89.8918 119.731 89.8151 119.851 89.7616C119.971 89.7081 120.101 89.6788 120.233 89.6755ZM120.133 85.1544C120.25 85.1575 120.366 85.1838 120.473 85.2317C120.581 85.2797 120.678 85.3483 120.758 85.4338C120.839 85.5192 120.902 85.6198 120.944 85.7297C120.986 85.8396 121.006 85.9567 121.002 86.0742C121 86.3095 120.91 86.5353 120.749 86.7066C120.587 86.8778 120.367 86.9819 120.133 86.9981C119.647 87.0061 119.257 86.5833 119.257 86.0742C119.257 85.5652 119.647 85.1544 120.133 85.1544ZM135.037 103.84L135.029 103.712C135.029 102.826 135.73 102.788 135.875 101.892C136.039 100.912 135.087 99.8559 133.936 100.467C133.491 100.7 133.247 101.112 133.247 101.664C133.247 102.571 133.944 102.692 133.944 103.543C133.944 104.255 133.427 104.968 132.704 104.968C131.77 104.968 131.295 104.313 131.295 103.465C131.295 102.744 132.121 102.373 132.121 101.577C132.121 100.688 131.565 100.098 130.683 100.098C129.707 100.098 129.403 101.401 128.404 101.401C127.527 101.401 127.238 100.13 126.324 100.13C125.254 100.13 125.452 100.82 124.312 101.159C124.183 101.191 123.921 101.345 123.454 101.124C122.518 100.678 122.446 99.7898 122.446 99.4331C122.446 99.2106 122.704 98.5232 122.87 98.415C123.09 98.2743 123.272 98.0828 123.402 97.8568C123.532 97.6308 123.605 97.3768 123.616 97.1164C123.61 96.2326 123.033 95.5653 122.201 95.5653C121.205 95.5653 121.265 96.1685 120.555 96.3669C119.726 96.5914 118.926 96.0142 118.926 94.9901C118.926 94.2086 119.575 93.6515 120.193 93.6515C121.055 93.6515 121.115 94.3328 121.989 94.3328C122.43 94.3509 122.744 94.2146 123.117 93.8679C123.594 93.411 123.79 92.6254 123.43 91.912C123.281 91.6093 123.051 91.3328 122.866 91.0482C122.756 90.809 122.699 90.5482 122.701 90.2846C122.702 90.0209 122.762 89.7609 122.876 89.5232C123.008 89.2869 123.208 89.096 123.45 88.9758C123.693 88.8556 123.966 88.8116 124.233 88.8498C124.519 88.8889 124.789 89.0054 125.013 89.1865C125.618 89.6755 126.33 89.8899 127.031 89.2947C127.368 89.0081 127.488 88.5472 127.442 88.1203C127.423 87.9222 127.36 87.7309 127.256 87.5609C127.153 87.3908 127.012 87.2464 126.845 87.1384C125.751 86.4851 125.282 87.455 124.622 87.6554C124.283 87.7614 123.915 87.7305 123.598 87.5692C122.977 87.1785 122.586 86.6895 122.824 85.7536C123.091 84.952 124.003 84.1804 125.264 85.0081C125.56 85.2426 125.901 85.4249 126.192 85.4209C126.837 85.4109 127.474 84.8117 127.474 84.0662C127.474 83.3147 126.899 82.7115 126.192 82.7115C125.765 82.7115 125.512 82.8838 125.192 83.1965C124.879 83.4911 124.5 83.6975 123.909 83.5091C123.468 83.3307 123.317 83.0882 123.139 82.7936C122.911 82.0341 122.586 81.7816 122.135 81.7816C121.506 81.7816 121.371 82.1524 121.053 82.6935C120.758 83.1203 120.295 83.1584 120.01 83.1584C119.623 83.1584 119.195 82.966 118.699 82.469C118.465 82.2365 118.285 82.0341 118.016 82.0341C117.531 82.0341 117.194 82.5431 116.851 82.8758C116.575 83.1544 116.256 83.3888 115.779 83.3888C115.613 83.3903 115.449 83.3554 115.299 83.2864C115.148 83.2175 115.014 83.1163 114.907 82.99C114.398 82.3508 113.486 82.2886 113.037 82.6293C111.955 83.451 112.312 84.477 112.799 85.1424C113.135 85.6053 113.242 86.2766 112.773 86.8518C112.659 87.0017 112.515 87.126 112.35 87.2165C112.184 87.3069 112.002 87.3616 111.815 87.3768C111.406 87.4209 111.017 87.2386 110.718 86.8839C110.347 86.453 110.347 85.6313 110.59 85.2786C110.88 84.8458 111.087 84.5091 110.979 83.9399C110.748 82.7776 109.612 82.3508 108.784 82.8498C108.655 82.9385 108.537 83.0436 108.435 83.1624C108.305 83.322 108.139 83.4487 107.95 83.5323C107.762 83.6159 107.557 83.6539 107.351 83.6434C106.986 83.6434 106.485 83.3307 106.399 83.1965C105.254 81.5011 107.024 80.9379 106.884 79.3968C106.82 78.6994 106.285 78.3247 105.95 77.7134C105.916 77.5692 105.882 77.4269 105.852 77.2746C105.9 76.8337 106.363 76.4449 106.611 76H98.5899V96.3529C87.3856 96.4731 78.338 106.11 78.338 117.992C78.338 129.872 87.3856 139.514 98.5899 139.636V160.301H106.202C106.485 159.929 106.846 159.508 106.882 159.019C106.964 157.908 105.95 157.604 105.888 156.732C105.876 156.549 105.923 156.367 106.02 156.211C106.331 155.688 106.964 155.265 107.076 154.678C107.283 153.6 105.779 153.083 106.409 151.68C106.544 151.381 106.787 151.143 107.089 151.014C107.391 150.885 107.73 150.874 108.04 150.983C109.016 151.337 108.758 152.247 109.656 152.247C110.562 152.247 110.434 151.544 110.925 151.203C111.774 150.616 112.642 150.963 113.023 151.62C113.32 152.139 113.248 152.794 113.049 153.107C112.853 153.421 112.56 153.702 112.56 154.255C112.56 155.033 113.155 155.662 113.887 155.662C114.625 155.662 115.216 155.033 115.216 154.255C115.216 154.05 115.172 153.848 115.087 153.661C115.003 153.474 114.879 153.308 114.725 153.173C114.554 152.979 114.472 152.614 114.472 152.273C114.472 151.506 115.005 150.983 115.805 150.898C115.977 150.895 116.147 150.925 116.307 150.988C116.467 151.051 116.612 151.145 116.735 151.265C116.936 151.486 117.024 151.714 117.096 151.912C117.298 152.57 116.928 153.097 116.613 153.652C116.424 153.919 116.322 154.237 116.32 154.564C116.32 155.411 116.974 156.097 117.775 156.097C118.122 156.097 118.439 155.961 118.691 155.74C119.215 155.391 119.734 154.89 120.439 155.105C120.734 155.195 120.92 155.373 121.135 155.558C121.272 155.722 121.443 155.854 121.636 155.945C121.829 156.036 122.04 156.083 122.253 156.085C123.095 156.085 123.778 155.361 123.778 154.472C123.775 154.19 123.702 153.913 123.566 153.666C123.48 153.511 123.369 153.371 123.239 153.251C123.02 153.033 122.871 152.755 122.81 152.452C122.739 152.036 122.818 151.609 123.033 151.247C123.289 150.77 124.065 150.528 124.598 150.65C124.783 150.703 124.953 150.8 125.093 150.932C125.209 151.1 125.364 151.238 125.544 151.334C125.725 151.429 125.925 151.48 126.13 151.482C126.855 151.482 127.442 150.862 127.442 150.091C127.442 149.325 126.855 148.706 126.13 148.706C125.246 148.706 125.26 149.574 124.233 149.574C123.99 149.58 123.749 149.521 123.536 149.403C123.323 149.284 123.146 149.111 123.023 148.9C122.634 148.293 122.8 147.594 122.985 147.233C123.119 146.964 123.333 146.73 123.494 146.48C123.744 146.173 123.881 145.791 123.883 145.395C123.883 144.469 123.171 143.72 122.299 143.72C121.948 143.72 121.607 143.842 121.335 144.065C121.312 144.083 121.291 144.105 121.273 144.129L121.263 144.121C121.217 144.184 121.164 144.242 121.105 144.293C120.997 144.402 120.869 144.488 120.728 144.546C119.768 144.999 118.691 143.866 119.166 142.832C119.335 142.475 119.573 142.175 119.936 142.097C120.872 141.892 121.01 142.367 121.395 142.632C121.6 142.759 121.838 142.824 122.079 142.816C122.876 142.816 123.516 142.137 123.516 141.299C123.518 141.043 123.455 140.79 123.334 140.563C123.214 140.337 123.038 140.144 122.824 140.003C122.816 139.997 122.816 139.988 122.81 139.984C122.778 139.953 122.735 139.932 122.69 139.926C122.501 139.828 122.292 139.775 122.079 139.772C121.335 139.772 121.235 140.225 120.726 140.409C120.568 140.471 120.399 140.501 120.23 140.497C120.06 140.494 119.893 140.457 119.738 140.389C119.583 140.321 119.443 140.223 119.325 140.1C119.208 139.978 119.116 139.834 119.054 139.676C118.621 138.636 119.477 137.383 120.67 137.76C121.121 137.9 121.391 138.283 121.67 138.441C121.87 138.564 122.101 138.628 122.335 138.626C123.163 138.64 123.829 137.916 123.829 137.047C123.827 136.912 123.809 136.778 123.776 136.648V136.598C123.73 136.213 123.335 135.904 123.135 135.576C122.734 134.912 123.033 134.081 123.668 133.646C123.967 133.439 124.474 133.415 124.809 133.532C125.388 133.726 125.961 134.664 125.608 135.317C125.26 135.972 124.977 136.093 124.977 136.63C124.977 137.445 125.737 138.013 126.2 138.013C126.468 138.013 126.939 137.956 127.23 137.608C127.895 136.796 127.617 136.209 127.23 135.53C127.103 135.31 127.034 135.061 127.031 134.808C127.027 134.554 127.089 134.304 127.21 134.081C127.304 133.901 127.437 133.745 127.598 133.622C127.758 133.498 127.944 133.412 128.142 133.367C128.992 133.211 129.88 133.944 129.804 134.93C129.759 135.465 129.535 135.62 129.294 136.023C128.9 136.682 129.361 137.61 129.978 137.912C130.9 138.345 132.042 137.512 131.814 136.327C131.674 135.62 131.253 135.592 131.15 135.079C131.088 134.726 130.998 134.457 131.389 133.788C131.81 133.075 132.748 133.025 133.514 133.608C133.776 133.808 133.967 134.061 134.259 134.159C134.503 134.238 134.764 134.25 135.014 134.195C135.265 134.14 135.496 134.018 135.684 133.844C135.927 133.625 136.099 133.337 136.176 133.019C136.253 132.701 136.233 132.367 136.117 132.061C135.909 131.509 135.297 131.133 135.271 130.299C135.249 129.433 135.891 128.934 136.157 128.307C136.334 127.904 136.408 127.427 135.985 126.788C135.895 126.65 135.776 126.533 135.637 126.444C135.499 126.356 135.342 126.298 135.179 126.275C134.777 126.221 134.37 126.317 134.035 126.545C133.564 126.852 133.053 127.305 132.431 127.147C132.271 127.103 131.87 127.059 131.656 126.788C130.922 125.876 131.393 125.141 131.73 124.389C132.004 123.77 132.145 123.062 131.483 122.425C130.986 121.946 130.14 122.016 129.589 122.425C129.33 122.608 129.132 122.714 128.877 122.902C128.204 123.159 127.675 123 127.304 122.628C127.042 122.329 126.895 121.948 126.889 121.551C126.919 120.694 127.803 120.443 127.803 119.287C127.803 117.972 126.671 118.022 126.671 116.563C126.671 116.243 126.885 115.758 127.154 115.529C127.488 115.243 127.747 115.129 127.982 115.129C129.403 115.129 129.044 116.048 130.244 116.048C130.625 116.048 131.02 115.838 131.295 115.545C131.906 114.902 131.696 113.9 131.389 113.563C131.158 113.312 131.012 112.994 130.972 112.655C130.932 112.317 131 111.974 131.166 111.676C131.319 111.38 131.576 111.152 131.888 111.035C132.199 110.918 132.543 110.921 132.852 111.042C133.305 111.223 133.265 111.475 133.806 111.77C134.636 112.249 135.576 111.77 135.891 111.042C136.51 109.613 135.257 109.321 135.207 108.351C135.167 107.317 136.211 106.98 136.314 106.137C136.432 105.215 135.185 104.688 135.037 103.84Z" fill="white"/>
<path d="M126.254 158.046C126.166 158.048 126.079 158.068 125.999 158.103C125.918 158.139 125.846 158.19 125.785 158.253C125.725 158.317 125.677 158.392 125.646 158.474C125.615 158.556 125.6 158.644 125.602 158.732C125.602 159.109 125.891 159.417 126.254 159.417C126.609 159.417 126.899 159.109 126.899 158.732C126.899 158.351 126.609 158.046 126.254 158.046Z" fill="white"/>
<path d="M122.116 157.592C121.561 157.592 121.112 158.067 121.112 158.66C121.112 159.247 121.561 159.722 122.116 159.722C122.675 159.722 123.126 159.247 123.126 158.66C123.13 158.524 123.107 158.388 123.059 158.26C123.01 158.132 122.937 158.016 122.843 157.916C122.749 157.817 122.637 157.737 122.512 157.682C122.387 157.626 122.253 157.596 122.116 157.592Z" fill="white"/>
<path d="M118.115 157.592C117.84 157.6 117.579 157.717 117.39 157.918C117.2 158.118 117.098 158.385 117.105 158.66C117.105 159.247 117.562 159.722 118.115 159.722C118.673 159.722 119.118 159.247 119.118 158.66C119.118 158.067 118.673 157.592 118.115 157.592Z" fill="white"/>
<path d="M113.876 158.105C113.552 158.105 113.287 158.394 113.287 158.732C113.287 159.083 113.552 159.356 113.876 159.356C114.205 159.356 114.472 159.083 114.472 158.732C114.472 158.394 114.205 158.105 113.876 158.105Z" fill="white"/>
<path d="M109.516 157.867C109.283 157.873 109.063 157.972 108.903 158.141C108.743 158.31 108.657 158.536 108.664 158.768C108.664 159.265 109.043 159.666 109.516 159.666C109.985 159.666 110.364 159.265 110.364 158.768C110.364 158.271 109.985 157.867 109.516 157.867Z" fill="white"/>
<path d="M97.5048 76.0445C96.4525 76.0445 95.6648 76.8882 95.5325 77.9163L94.5764 83.9644C94.3319 85.0987 92.9269 85.5375 92.9269 85.5375H92.9449C92.0449 85.7399 91.161 85.9865 90.2931 86.2811C90.0907 86.3212 88.854 86.5617 88.1705 85.7841L84.4725 81.0526C83.8772 80.2269 82.7949 79.9123 81.8829 80.4674L77.9123 82.8922C77.0024 83.4513 76.7177 84.5956 77.0966 85.5536L79.127 91.3072C79.4436 92.4134 78.4355 93.5336 78.4355 93.5336L78.4555 93.5237C77.784 94.173 77.1407 94.8462 76.5313 95.5577L76.5373 95.5397C76.5373 95.5397 75.4791 96.6099 74.4328 96.2692L68.999 94.1228C68.5479 93.9201 68.0365 93.8966 67.5686 94.057C67.1007 94.2174 66.7114 94.5497 66.4796 94.9866L64.1846 99.187C63.9433 99.6368 63.8663 100.157 63.9669 100.657C64.0675 101.157 64.3394 101.607 64.7358 101.928L69.2115 105.83C69.9491 106.556 69.7166 107.88 69.6785 108.083C69.4028 109.005 69.1681 109.938 68.975 110.88V110.864C68.975 110.864 68.5621 112.353 67.4958 112.61L61.7714 113.622C61.2732 113.695 60.8187 113.947 60.4926 114.33C60.1666 114.714 59.9913 115.203 59.9995 115.706V120.562C59.9995 121.672 60.7972 122.506 61.7714 122.638L67.4958 123.654C68.5621 123.915 68.975 125.398 68.975 125.398V125.378C69.1694 126.327 69.4039 127.267 69.6785 128.183C69.7166 128.398 69.9491 129.708 69.2115 130.436L64.7358 134.336C64.3392 134.657 64.0672 135.107 63.9666 135.608C63.866 136.109 63.9431 136.629 64.1846 137.079L66.4796 141.282C66.71 141.72 67.0991 142.053 67.5674 142.214C68.0357 142.375 68.5478 142.351 68.999 142.147L74.4328 139.999C75.4791 139.658 76.5373 140.728 76.5373 140.728L76.5253 140.708C77.1406 141.412 77.784 142.095 78.4555 142.744L78.4355 142.73C78.4355 142.73 79.4436 143.853 79.127 144.959L77.0966 150.708C76.7177 151.67 77.0024 152.815 77.9123 153.374L81.8829 155.799C82.7949 156.354 83.8772 156.035 84.4725 155.213L88.1705 150.476C88.8721 149.684 90.1528 149.959 90.3032 149.991C91.171 150.286 92.057 150.524 92.9549 150.734H92.9269C92.9269 150.734 94.3319 151.167 94.5764 152.3L95.5325 158.352C95.6648 159.378 96.4525 160.226 97.5048 160.226H99.8799V133.303C91.7884 133.303 85.2262 126.364 85.2262 117.804C85.2262 109.241 91.7884 102.303 99.8799 102.303V76.0445H97.5048Z" fill="url(#paint2_linear_22_14)"/>
</g>
<defs>
<linearGradient id="paint0_linear_22_14" x1="805.548" y1="118.506" x2="90.0662" y2="118.506" gradientUnits="userSpaceOnUse">
<stop stop-color="white"/>
<stop offset="0.318766" stop-color="#00ADEF"/>
<stop offset="0.544937" stop-color="#00ADEF"/>
<stop offset="0.632605" stop-color="#00ADEF"/>
<stop offset="1" stop-color="#2E3192"/>
</linearGradient>
<linearGradient id="paint1_linear_22_14" x1="176.151" y1="118.133" x2="80.0892" y2="118.133" gradientUnits="userSpaceOnUse">
<stop stop-color="white"/>
<stop offset="0.318766" stop-color="#00ADEF"/>
<stop offset="0.544937" stop-color="#00ADEF"/>
<stop offset="0.632605" stop-color="#00ADEF"/>
<stop offset="1" stop-color="#2E3192"/>
</linearGradient>
<linearGradient id="paint2_linear_22_14" x1="195.551" y1="118.133" x2="75.1549" y2="118.133" gradientUnits="userSpaceOnUse">
<stop stop-color="white"/>
<stop offset="0.318766" stop-color="#00ADEF"/>
<stop offset="0.544937" stop-color="#00ADEF"/>
<stop offset="0.632605" stop-color="#00ADEF"/>
<stop offset="1" stop-color="#2E3192"/>
</linearGradient>
<clipPath id="clip0_22_14">
<rect width="115.078" height="84.293" fill="white" transform="translate(60 76)"/>
</clipPath>
</defs>
</svg>
