<svg width="237" height="237" viewBox="0 0 237 237" fill="none" xmlns="http://www.w3.org/2000/svg">
<rect width="237" height="237" fill="#FF6A6A"/>
<circle cx="118.5" cy="118.5" r="97.5" fill="white"/>
<rect x="66.2277" y="46.9272" width="104.103" height="149.28" fill="#FF6A6A"/>
<path d="M73.1979 42.1315L59.8645 46.8375C53.4194 51.7431 59.8645 92.826 59.8645 100.959L64.5 192.5C64.5 206.7 110.579 201.349 124.759 201.349H163.395C177.574 201.349 173.527 192.933 173.527 178.732V46.8375C173.527 38.7045 156.984 47.0372 150.539 42.1315L137.649 42.1315C128.497 35.2895 82.3499 35.2895 73.1979 42.1315ZM124.759 107.73C124.759 118.445 116.122 127.094 105.423 127.094V172.277C105.423 175.892 102.588 178.732 98.9783 178.732C95.369 178.732 92.5332 175.892 92.5332 172.277V127.094C81.8343 127.094 73.1979 118.445 73.1979 107.73V75.456C73.1979 71.8413 76.0338 69.0012 79.643 69.0012C83.2523 69.0012 86.0881 71.8413 86.0881 75.456V107.73H92.5332V75.456C92.5332 71.8413 95.369 69.0012 98.9783 69.0012C102.588 69.0012 105.423 71.8413 105.423 75.456V107.73H111.868V75.456C111.868 71.8413 114.704 69.0012 118.313 69.0012C121.923 69.0012 124.759 71.8413 124.759 75.456V107.73ZM150.539 178.732C146.93 178.732 144.094 175.892 144.094 172.277V133.549H137.649C134.039 133.549 131.204 130.709 131.204 127.094V94.8203C131.204 83.4599 138.551 73.7777 148.734 70.4212C152.73 69.0012 156.984 72.2286 156.984 76.6178V172.277C156.984 175.892 154.148 178.732 150.539 178.732Z" fill="white"/>
</svg>
