<svg width="237" height="237" viewBox="0 0 237 237" fill="none" xmlns="http://www.w3.org/2000/svg">
<rect width="237" height="237" fill="#F6C1FF"/>
<circle cx="118.5" cy="118.5" r="97.5" fill="white"/>
<path d="M163.7 62H95.9C89.685 62 84.6 67.085 84.6 73.3V141.1C84.6 147.315 89.685 152.4 95.9 152.4H163.7C169.915 152.4 175 147.315 175 141.1V73.3C175 67.085 169.915 62 163.7 62ZM146.75 90.25H135.45V120.591C135.45 127.766 130.365 134.377 123.246 135.281C113.698 136.58 105.675 128.218 107.426 118.613C108.556 112.398 114.093 107.596 120.421 107.2C123.981 106.974 127.201 108.104 129.8 110.082V84.6C129.8 81.4925 132.343 78.95 135.45 78.95H146.75C149.858 78.95 152.4 81.4925 152.4 84.6C152.4 87.7075 149.858 90.25 146.75 90.25ZM67.65 84.6C64.5425 84.6 62 87.1425 62 90.25V163.7C62 169.915 67.085 175 73.3 175H146.75C149.858 175 152.4 172.458 152.4 169.35C152.4 166.243 149.858 163.7 146.75 163.7H78.95C75.8425 163.7 73.3 161.158 73.3 158.05V90.25C73.3 87.1425 70.7575 84.6 67.65 84.6Z" fill="#F6C1FF"/>
</svg>
