<svg width="237" height="237" viewBox="0 0 237 237" fill="none" xmlns="http://www.w3.org/2000/svg">
<rect width="237" height="237" fill="#FFA857"/>
<circle cx="118.5" cy="118.5" r="97.5" fill="white"/>
<path d="M158.355 143.692V110.103C158.355 89.4785 147.468 72.2133 128.483 67.6451V63.0769C128.483 57.501 123.969 53 118.46 53C112.95 53 108.569 57.501 108.569 63.0769V67.6451C89.5171 72.2133 78.6969 89.4113 78.6969 110.103V143.692L70.0672 152.358C65.8852 156.591 68.806 163.846 74.714 163.846H162.139C168.047 163.846 171.034 156.591 166.852 152.358L158.355 143.692ZM118.46 184C125.762 184 131.736 177.954 131.736 170.564H105.183C105.183 177.954 111.091 184 118.46 184ZM83.8083 67.981C86.5963 65.4282 86.6627 61.0615 84.0074 58.3744C81.4849 55.8215 77.3693 55.7544 74.7804 58.24C63.4291 68.72 55.596 82.9621 53.0735 98.9508C52.4761 103.049 55.596 106.744 59.7117 106.744C62.898 106.744 65.686 104.392 66.2171 101.168C68.2086 88.1349 74.5812 76.5128 83.8083 67.981ZM162.338 58.24C159.683 55.7544 155.567 55.8215 153.045 58.3744C150.389 61.0615 150.522 65.361 153.244 67.9138C162.404 76.4456 168.843 88.0677 170.835 101.101C171.3 104.325 174.088 106.676 177.34 106.676C181.39 106.676 184.576 102.982 183.912 98.8836C181.39 82.9621 173.623 68.7872 162.338 58.24Z" fill="#FFA857"/>
</svg>
