<svg width="237" height="237" viewBox="0 0 237 237" fill="none" xmlns="http://www.w3.org/2000/svg">
<rect width="237" height="237" fill="#D280F9"/>
<circle cx="118.5" cy="118.5" r="97.5" fill="white"/>
<path d="M100.651 81.4583C98.5169 81.4583 96.7708 83.2043 96.7708 85.3385V96.9791H85.1302C82.9961 96.9791 81.25 98.7252 81.25 100.859C81.25 102.993 82.9961 104.74 85.1302 104.74H96.7708V116.38C96.7708 118.514 98.5169 120.26 100.651 120.26C102.785 120.26 104.531 118.514 104.531 116.38V104.74H116.172C118.306 104.74 120.052 102.993 120.052 100.859C120.052 98.7252 118.306 96.9791 116.172 96.9791H104.531V85.3385C104.531 83.2043 102.785 81.4583 100.651 81.4583Z" fill="#D280F9"/>
<g clip-path="url(#clip0_15_270)">
<path d="M155.75 162.167H81.25C77.8354 162.167 75.0417 159.373 75.0417 155.958V81.4584C75.0417 78.0438 77.8354 75.25 81.25 75.25H155.75C159.165 75.25 161.958 78.0438 161.958 81.4584V155.958C161.958 159.373 159.165 162.167 155.75 162.167ZM161.958 62.8334H75.0417C68.2125 62.8334 62.625 68.4209 62.625 75.25V162.167C62.625 168.996 68.2125 174.583 75.0417 174.583H161.958C168.788 174.583 174.375 168.996 174.375 162.167V75.25C174.375 68.4209 168.788 62.8334 161.958 62.8334Z" fill="#D280F9"/>
<path d="M167.831 70.2095V170.885H67.1554L167.831 70.2095Z" fill="#D280F9"/>
</g>
<path d="M139.401 140C137.267 140 139.401 140 135.521 140H123.88C121.746 140 120 141.746 120 143.88C120 146.014 121.746 147.76 123.88 147.76H135.521C137.461 147.76 137.267 147.76 139.401 147.76C141.535 147.76 140.371 147.76 143.281 147.76H154.922C157.056 147.76 158.802 146.014 158.802 143.88C158.802 141.746 157.056 140 154.922 140H143.281C141.341 140 141.535 140 139.401 140Z" fill="white"/>
<defs>
<clipPath id="clip0_15_270">
<rect width="149" height="149" fill="white" transform="translate(44 43)"/>
</clipPath>
</defs>
</svg>
