<svg width="237" height="237" viewBox="0 0 237 237" fill="none" xmlns="http://www.w3.org/2000/svg">
<rect width="237" height="237" fill="#6D6D6D"/>
<circle cx="118.5" cy="118.5" r="97.5" fill="white"/>
<path d="M172.367 125.409C172.657 123.153 172.874 120.897 172.874 118.5C172.874 116.103 172.657 113.847 172.367 111.591L187.66 99.9585C189.037 98.901 189.399 96.9975 188.53 95.4465L174.034 71.0535C173.164 69.5025 171.207 68.9385 169.613 69.5025L151.566 76.5525C147.797 73.7325 143.738 71.406 139.317 69.6435L136.563 50.961C136.346 49.269 134.824 48 133.012 48H104.02C102.209 48 100.686 49.269 100.469 50.961L97.7149 69.6435C93.2937 71.406 89.235 73.803 85.4662 76.5525L67.4192 69.5025C65.7522 68.868 63.8678 69.5025 62.9981 71.0535L48.5025 95.4465C47.5603 96.9975 47.9952 98.901 49.3722 99.9585L64.665 111.591C64.3751 113.847 64.1577 116.174 64.1577 118.5C64.1577 120.827 64.3751 123.153 64.665 125.409L49.3722 137.042C47.9952 138.099 47.6328 140.003 48.5025 141.554L62.9981 165.946C63.8678 167.497 65.8247 168.062 67.4192 167.498L85.4662 160.448C89.235 163.268 93.2937 165.594 97.7149 167.357L100.469 186.039C100.686 187.731 102.209 189 104.02 189H133.012C134.824 189 136.346 187.731 136.563 186.039L139.317 167.357C143.738 165.594 147.797 163.197 151.566 160.448L169.613 167.498C171.28 168.132 173.164 167.497 174.034 165.946L188.53 141.554C189.399 140.003 189.037 138.099 187.66 137.042L172.367 125.409ZM118.516 143.175C104.528 143.175 93.1488 132.107 93.1488 118.5C93.1488 104.894 104.528 93.825 118.516 93.825C132.504 93.825 143.883 104.894 143.883 118.5C143.883 132.107 132.504 143.175 118.516 143.175Z" fill="#6D6D6D"/>
</svg>
