<svg width="237" height="237" viewBox="0 0 237 237" fill="none" xmlns="http://www.w3.org/2000/svg">
<rect width="237" height="237" fill="#D8D8D8"/>
<circle cx="118.5" cy="118.5" r="97.5" fill="white"/>
<path d="M169 95.3738C169 92.2877 169 93.9579 169 90.4444V79.2222C169 73.05 163.95 68 157.778 68H79.2222C73.05 68 68 73.05 68 79.2222V157.778C68 163.95 73.05 169 79.2222 169H157.778C163.95 169 169 163.95 169 157.778V146.556C169 143.986 169 144.24 169 141.154C169 138.068 169 136.907 169 136.435V135.333V124.111C169 120.86 169 121.586 169 118.5C169 115.414 169 116.612 169 114.252V112.889V101.667C169 93.9579 169 98.4599 169 95.3738ZM152.167 157.778H84.8333C81.7472 157.778 79.2222 155.253 79.2222 152.167V84.8333C79.2222 81.7472 81.7472 79.2222 84.8333 79.2222H152.167C155.253 79.2222 157.778 81.7472 157.778 84.8333V152.167C157.778 155.253 155.253 157.778 152.167 157.778ZM93.25 124.111H115.694C117.266 124.111 118.5 125.346 118.5 126.917V143.75C118.5 145.321 117.266 146.556 115.694 146.556H93.25C91.6789 146.556 90.4444 145.321 90.4444 143.75V126.917C90.4444 125.346 91.6789 124.111 93.25 124.111ZM126.917 90.4444H143.75C145.321 90.4444 146.556 91.6789 146.556 93.25V104.472C146.556 106.043 145.321 107.278 143.75 107.278H126.917C125.346 107.278 124.111 106.043 124.111 104.472V93.25C124.111 91.6789 125.346 90.4444 126.917 90.4444ZM93.25 90.4444H115.694C117.266 90.4444 118.5 91.6789 118.5 93.25V115.694C118.5 117.266 117.266 118.5 115.694 118.5H93.25C91.6789 118.5 90.4444 117.266 90.4444 115.694V93.25C90.4444 91.6789 91.6789 90.4444 93.25 90.4444ZM126.917 112.889H143.75C145.321 112.889 146.556 114.123 146.556 115.694V143.75C146.556 145.321 145.321 146.556 143.75 146.556H126.917C125.346 146.556 124.111 145.321 124.111 143.75V115.694C124.111 114.123 125.346 112.889 126.917 112.889Z" fill="#D8D8D8"/>
</svg>
