<svg width="237" height="237" viewBox="0 0 237 237" fill="none" xmlns="http://www.w3.org/2000/svg">
<rect width="237" height="237" fill="#233F5A"/>
<circle cx="118.5" cy="118.5" r="97.5" fill="white"/>
<path d="M180.138 87.5461C180.138 87.5461 177.711 75.7368 174.421 75.7368C171.954 75.7368 162.112 86.8158 157.322 92.3684C155.612 94.3553 153.145 95.4737 150.526 95.4737C145.552 95.4737 141.526 91.4474 141.526 86.4737C141.526 83.8553 142.644 81.3882 144.631 79.6776C150.184 74.8882 161.263 65.0461 161.263 62.5789C161.263 59.2895 149.427 56.8026 149.427 56.8026C146.848 56.2697 144.184 56 141.526 56C119.756 56 102.052 73.875 102.052 95.8421C102.052 98.6053 102.388 101.401 103.059 104.296L62.1768 144.447C53.94 152.796 53.94 166.368 62.1834 174.717C66.1966 178.763 71.5453 181 77.2559 181C82.9599 181 88.3152 178.763 92.256 174.776L133.237 134.513C136.059 134.947 138.809 134.947 141.526 134.947C163.658 134.947 181 117.77 181 95.8421C181 93.0658 180.711 90.2697 180.138 87.5461Z" fill="#233F5A"/>
</svg>
