<svg width="100" height="100" viewBox="0 0 100 100" fill="none" xmlns="http://www.w3.org/2000/svg">
<circle cx="50" cy="50" r="48.5" fill="#D9D9D9" stroke="black" stroke-width="3"/>
<g filter="url(#filter0_d_8_12)">
<path d="M29.0087 26.0013C28.413 26.0015 27.8309 26.1793 27.3367 26.5121C26.8426 26.845 26.4589 27.3176 26.2348 27.8697C26.0106 28.4218 25.9561 29.0282 26.0783 29.6114C26.2005 30.1946 26.4938 30.7282 26.9207 31.1438L45.7655 49.9936L26.9207 68.8434C26.6333 69.1194 26.4039 69.45 26.2458 69.8158C26.0877 70.1816 26.0042 70.5753 26.0002 70.9738C25.9961 71.3723 26.0716 71.7676 26.2222 72.1366C26.3728 72.5056 26.5955 72.8408 26.8772 73.1226C27.1589 73.4044 27.494 73.6271 27.8629 73.7777C28.2317 73.9284 28.6269 74.0039 29.0253 73.9998C29.4237 73.9958 29.8173 73.9122 30.1831 73.7541C30.5488 73.596 30.8793 73.3665 31.1552 73.079L50 54.2292L68.8448 73.079C69.1207 73.3665 69.4512 73.596 69.8169 73.7541C70.1827 73.9123 70.5762 73.9958 70.9746 73.9998C71.373 74.0039 71.7683 73.9284 72.1371 73.7778C72.506 73.6271 72.8411 73.4044 73.1228 73.1226C73.4045 72.8408 73.6272 72.5056 73.7778 72.1366C73.9284 71.7677 74.0039 71.3723 73.9998 70.9738C73.9958 70.5753 73.9123 70.1816 73.7542 69.8158C73.5961 69.45 73.3667 69.1194 73.0793 68.8434L54.2345 49.9936L73.0793 31.1438C73.512 30.723 73.8076 30.1813 73.9272 29.5897C74.0469 28.998 73.9851 28.384 73.7499 27.8281C73.5147 27.2722 73.1171 26.8004 72.6092 26.4744C72.1013 26.1484 71.5067 25.9835 70.9035 26.0013C70.1255 26.0245 69.3871 26.3497 68.8448 26.9081L50 45.7579L31.1552 26.9081C30.8762 26.6212 30.5424 26.3931 30.1738 26.2373C29.8051 26.0816 29.4089 26.0013 29.0087 26.0013Z" fill="black"/>
<path d="M29.0088 25.0013L29.0085 25.0013C28.2138 25.0015 27.4372 25.2388 26.7781 25.6827C26.1189 26.1267 25.6072 26.7572 25.3082 27.4935C25.0092 28.2299 24.9366 29.0387 25.0996 29.8165C25.262 30.592 25.6513 31.3016 26.2179 31.8552L44.3515 49.9936L26.2201 68.1298C25.8405 68.4964 25.5372 68.9346 25.3278 69.4192C25.117 69.9071 25.0056 70.4322 25.0002 70.9637C24.9948 71.4952 25.0955 72.0224 25.2963 72.5145C25.4972 73.0066 25.7942 73.4537 26.17 73.8296C26.5458 74.2055 26.9928 74.5026 27.4848 74.7035C27.9769 74.9045 28.5041 75.0052 29.0355 74.9998C29.567 74.9944 30.092 74.8829 30.5799 74.672C31.0644 74.4626 31.5025 74.1592 31.869 73.7794L50 55.6436L68.1309 73.7794C68.4974 74.1592 68.9356 74.4626 69.4201 74.672C69.908 74.8829 70.433 74.9944 70.9645 74.9998C71.4959 75.0052 72.0231 74.9045 72.5152 74.7035C73.0072 74.5026 73.4542 74.2055 73.83 73.8296C74.2058 73.4537 74.5028 73.0066 74.7037 72.5145C74.9045 72.0224 75.0052 71.4952 74.9998 70.9637C74.9944 70.4322 74.883 69.9071 74.6722 69.4192C74.4628 68.9346 74.1596 68.4964 73.7799 68.1298L55.6485 49.9936L73.7818 31.8554C74.3561 31.295 74.7483 30.5745 74.9074 29.7879C75.067 28.9988 74.9845 28.1799 74.6708 27.4385C74.3571 26.697 73.8268 26.0677 73.1493 25.6328C72.4718 25.198 71.6787 24.978 70.8741 25.0017L70.8737 25.0017C69.8385 25.0326 68.8558 25.4644 68.1329 26.2058L50 44.3435L31.867 26.2056C31.4958 25.8254 31.0524 25.523 30.5629 25.3162C30.0711 25.1084 29.5427 25.0013 29.0088 25.0013Z" stroke="white" stroke-width="2"/>
</g>
<defs>
<filter id="filter0_d_8_12" x="20" y="24" width="60" height="60" filterUnits="userSpaceOnUse" color-interpolation-filters="sRGB">
<feFlood flood-opacity="0" result="BackgroundImageFix"/>
<feColorMatrix in="SourceAlpha" type="matrix" values="0 0 0 0 0 0 0 0 0 0 0 0 0 0 0 0 0 0 127 0" result="hardAlpha"/>
<feOffset dy="4"/>
<feGaussianBlur stdDeviation="2"/>
<feComposite in2="hardAlpha" operator="out"/>
<feColorMatrix type="matrix" values="0 0 0 0 0 0 0 0 0 0 0 0 0 0 0 0 0 0 0.25 0"/>
<feBlend mode="normal" in2="BackgroundImageFix" result="effect1_dropShadow_8_12"/>
<feBlend mode="normal" in="SourceGraphic" in2="effect1_dropShadow_8_12" result="shape"/>
</filter>
</defs>
</svg>
