<svg width="89" height="37" viewBox="0 0 89 37" fill="none" xmlns="http://www.w3.org/2000/svg">
<mask id="path-1-outside-1_20_23" maskUnits="userSpaceOnUse" x="-2" y="-2" width="93" height="41" fill="black">
<rect fill="white" x="-2" y="-2" width="93" height="41"/>
<path d="M21.88 18.04L28.04 33.56C28.68 35.08 28.08 36.12 26.56 36.12H20C18.48 36.12 17.04 35.12 16.4 33.6L11.92 23.24H11.56V33.32C11.56 35 10.56 36.12 9.04 36.12H2.88C1.36 36.12 0.36 35 0.36 33.32V3.4C0.36 1.72 1.36 0.599998 2.88 0.599998H9.04C10.56 0.599998 11.56 1.72 11.56 3.4V13.48H11.92L15.8 3.2C16.36 1.64 17.76 0.599998 19.28 0.599998H25.84C27.36 0.599998 27.96 1.64 27.4 3.2L21.88 18.04ZM27.5047 27.76V26.48C27.5047 24.8 28.5047 23.68 30.0247 23.68H35.9047C37.1447 23.68 37.9047 24.48 38.5447 26.48C38.7447 27.08 39.1447 27.36 39.7447 27.4H41.3847C42.3847 27.4 42.7447 26.72 42.7447 25.48V25.44C42.7447 24.6 42.3047 23.76 41.4647 23.44L31.9847 19.48C29.2647 18.4 27.5047 16.08 27.5047 12.4V8.96C27.5047 3.36 30.5447 0.399998 35.4647 0.399998H45.6647C50.6247 0.399998 53.6247 3.36 53.6247 8.96V10.64C53.6247 12.32 52.6247 13.44 51.1047 13.44H45.2647C43.8647 13.44 42.9447 12.44 42.7047 10.64C42.5847 9.8 42.1847 9.32 41.3847 9.32H39.7447C38.7847 9.32 38.4247 10 38.4247 11.24V11.28C38.4247 12.56 38.9047 13.4 39.9047 13.76L49.1447 17.24C52.0247 18.32 53.5847 21.12 53.5847 23.84L53.6247 27.76C53.6247 33.36 50.6247 36.32 45.6647 36.32H35.4647C30.5447 36.32 27.5047 33.36 27.5047 27.76ZM88.1003 3.4V33.32C88.1003 35 87.0603 36.12 85.5803 36.12H81.1803C79.6603 36.12 78.6603 35 78.6603 33.32V19.6H78.3803L76.4603 33.36C76.2603 35 75.1003 36.12 73.5803 36.12H69.4603C67.9403 36.12 66.7803 35 66.5803 33.36L64.7003 19.6H64.3803V33.32C64.3803 35 63.3803 36.12 61.8603 36.12H57.5003C55.9803 36.12 54.9803 35 54.9803 33.32V3.4C54.9803 1.72 55.9803 0.599998 57.5003 0.599998H66.7403C68.2603 0.599998 69.3803 1.72 69.5403 3.4L71.3803 21.76H71.6603L73.5003 3.4C73.7003 1.72 74.7803 0.599998 76.3003 0.599998H85.5803C87.0603 0.599998 88.1003 1.72 88.1003 3.4Z"/>
</mask>
<path d="M21.88 18.04L28.04 33.56C28.68 35.08 28.08 36.12 26.56 36.12H20C18.48 36.12 17.04 35.12 16.4 33.6L11.92 23.24H11.56V33.32C11.56 35 10.56 36.12 9.04 36.12H2.88C1.36 36.12 0.36 35 0.36 33.32V3.4C0.36 1.72 1.36 0.599998 2.88 0.599998H9.04C10.56 0.599998 11.56 1.72 11.56 3.4V13.48H11.92L15.8 3.2C16.36 1.64 17.76 0.599998 19.28 0.599998H25.84C27.36 0.599998 27.96 1.64 27.4 3.2L21.88 18.04ZM27.5047 27.76V26.48C27.5047 24.8 28.5047 23.68 30.0247 23.68H35.9047C37.1447 23.68 37.9047 24.48 38.5447 26.48C38.7447 27.08 39.1447 27.36 39.7447 27.4H41.3847C42.3847 27.4 42.7447 26.72 42.7447 25.48V25.44C42.7447 24.6 42.3047 23.76 41.4647 23.44L31.9847 19.48C29.2647 18.4 27.5047 16.08 27.5047 12.4V8.96C27.5047 3.36 30.5447 0.399998 35.4647 0.399998H45.6647C50.6247 0.399998 53.6247 3.36 53.6247 8.96V10.64C53.6247 12.32 52.6247 13.44 51.1047 13.44H45.2647C43.8647 13.44 42.9447 12.44 42.7047 10.64C42.5847 9.8 42.1847 9.32 41.3847 9.32H39.7447C38.7847 9.32 38.4247 10 38.4247 11.24V11.28C38.4247 12.56 38.9047 13.4 39.9047 13.76L49.1447 17.24C52.0247 18.32 53.5847 21.12 53.5847 23.84L53.6247 27.76C53.6247 33.36 50.6247 36.32 45.6647 36.32H35.4647C30.5447 36.32 27.5047 33.36 27.5047 27.76ZM88.1003 3.4V33.32C88.1003 35 87.0603 36.12 85.5803 36.12H81.1803C79.6603 36.12 78.6603 35 78.6603 33.32V19.6H78.3803L76.4603 33.36C76.2603 35 75.1003 36.12 73.5803 36.12H69.4603C67.9403 36.12 66.7803 35 66.5803 33.36L64.7003 19.6H64.3803V33.32C64.3803 35 63.3803 36.12 61.8603 36.12H57.5003C55.9803 36.12 54.9803 35 54.9803 33.32V3.4C54.9803 1.72 55.9803 0.599998 57.5003 0.599998H66.7403C68.2603 0.599998 69.3803 1.72 69.5403 3.4L71.3803 21.76H71.6603L73.5003 3.4C73.7003 1.72 74.7803 0.599998 76.3003 0.599998H85.5803C87.0603 0.599998 88.1003 1.72 88.1003 3.4Z" fill="white"/>
<path d="M21.88 18.04L20.0055 17.3427L19.7375 18.0633L20.0211 18.7778L21.88 18.04ZM28.04 33.56L26.1811 34.2978L26.1887 34.317L26.1967 34.3361L28.04 33.56ZM16.4 33.6L18.2433 32.8239L18.2395 32.815L18.2357 32.8062L16.4 33.6ZM11.92 23.24L13.7557 22.4462L13.2341 21.24H11.92V23.24ZM11.56 23.24V21.24H9.56V23.24H11.56ZM11.56 13.48H9.56V15.48H11.56V13.48ZM11.92 13.48V15.48H13.3029L13.7912 14.1862L11.92 13.48ZM15.8 3.2L17.6712 3.90623L17.6769 3.89103L17.6824 3.87573L15.8 3.2ZM27.4 3.2L29.2745 3.89726L29.2785 3.88652L29.2824 3.87573L27.4 3.2ZM20.0211 18.7778L26.1811 34.2978L29.8989 32.8222L23.7389 17.3022L20.0211 18.7778ZM26.1967 34.3361C26.285 34.5457 26.2931 34.6527 26.2935 34.6655C26.2937 34.6704 26.2909 34.5607 26.3783 34.4094C26.4203 34.3367 26.4736 34.2719 26.5326 34.2192C26.5907 34.1673 26.6432 34.137 26.6772 34.1212C26.7405 34.0916 26.7203 34.12 26.56 34.12V38.12C27.7463 38.12 29.1005 37.6934 29.8417 36.4106C30.5425 35.1976 30.3264 33.8363 29.8833 32.7839L26.1967 34.3361ZM26.56 34.12H20V38.12H26.56V34.12ZM20 34.12C19.3586 34.12 18.6007 33.6729 18.2433 32.8239L14.5567 34.3761C15.4793 36.5671 17.6014 38.12 20 38.12V34.12ZM18.2357 32.8062L13.7557 22.4462L10.0843 24.0338L14.5643 34.3938L18.2357 32.8062ZM11.92 21.24H11.56V25.24H11.92V21.24ZM9.56 23.24V33.32H13.56V23.24H9.56ZM9.56 33.32C9.56 33.7688 9.42993 33.9603 9.3819 34.0137C9.35215 34.0469 9.28021 34.12 9.04 34.12V38.12C10.3198 38.12 11.5079 37.6331 12.3581 36.6863C13.1901 35.7597 13.56 34.5512 13.56 33.32H9.56ZM9.04 34.12H2.88V38.12H9.04V34.12ZM2.88 34.12C2.63979 34.12 2.56785 34.0469 2.5381 34.0137C2.49007 33.9603 2.36 33.7688 2.36 33.32H-1.64C-1.64 34.5512 -1.27007 35.7597 -0.438097 36.6863C0.412145 37.6331 1.60021 38.12 2.88 38.12V34.12ZM2.36 33.32V3.4H-1.64V33.32H2.36ZM2.36 3.4C2.36 2.95119 2.49007 2.75973 2.5381 2.70625C2.56785 2.67311 2.63979 2.6 2.88 2.6V-1.4C1.60021 -1.4 0.412146 -0.913114 -0.438097 0.0337471C-1.27007 0.960267 -1.64 2.16881 -1.64 3.4H2.36ZM2.88 2.6H9.04V-1.4H2.88V2.6ZM9.04 2.6C9.28021 2.6 9.35215 2.67311 9.3819 2.70625C9.42993 2.75973 9.56 2.95119 9.56 3.4H13.56C13.56 2.16881 13.1901 0.960267 12.3581 0.0337471C11.5079 -0.913114 10.3198 -1.4 9.04 -1.4V2.6ZM9.56 3.4V13.48H13.56V3.4H9.56ZM11.56 15.48H11.92V11.48H11.56V15.48ZM13.7912 14.1862L17.6712 3.90623L13.9288 2.49376L10.0488 12.7738L13.7912 14.1862ZM17.6824 3.87573C17.9884 3.02315 18.6929 2.6 19.28 2.6V-1.4C16.8271 -1.4 14.7316 0.256847 13.9176 2.52427L17.6824 3.87573ZM19.28 2.6H25.84V-1.4H19.28V2.6ZM25.84 2.6C25.9996 2.6 26.0198 2.6281 25.9582 2.59935C25.9253 2.58401 25.8759 2.5553 25.8214 2.50699C25.7664 2.4581 25.7179 2.39939 25.68 2.33564C25.602 2.20413 25.6062 2.11681 25.6063 2.14351C25.6064 2.17669 25.5981 2.30012 25.5176 2.52427L29.2824 3.87573C29.6641 2.81251 29.8184 1.47142 29.12 0.294357C28.3718 -0.966394 27.0396 -1.4 25.84 -1.4V2.6ZM25.5255 2.50274L20.0055 17.3427L23.7545 18.7373L29.2745 3.89726L25.5255 2.50274ZM38.5447 26.48L36.6398 27.0896L36.6435 27.101L36.6473 27.1125L38.5447 26.48ZM39.7447 27.4L39.6117 29.3956L39.6781 29.4H39.7447V27.4ZM41.4647 23.44L40.6938 25.2855L40.7231 25.2977L40.7527 25.309L41.4647 23.44ZM31.9847 19.48L32.7556 17.6345L32.7392 17.6277L32.7228 17.6212L31.9847 19.48ZM42.7047 10.64L44.6871 10.3757L44.6859 10.3664L44.6846 10.3572L42.7047 10.64ZM39.9047 13.76L40.6096 11.8883L40.5959 11.8832L40.5821 11.8782L39.9047 13.76ZM49.1447 17.24L48.4398 19.1117L48.4424 19.1127L49.1447 17.24ZM53.5847 23.84H51.5847V23.8502L51.5848 23.8604L53.5847 23.84ZM53.6247 27.76H55.6247V27.7498L55.6246 27.7396L53.6247 27.76ZM29.5047 27.76V26.48H25.5047V27.76H29.5047ZM29.5047 26.48C29.5047 26.0312 29.6348 25.8397 29.6828 25.7863C29.7125 25.7531 29.7845 25.68 30.0247 25.68V21.68C28.7449 21.68 27.5568 22.1669 26.7066 23.1137C25.8746 24.0403 25.5047 25.2488 25.5047 26.48H29.5047ZM30.0247 25.68H35.9047V21.68H30.0247V25.68ZM35.9047 25.68C35.9957 25.68 36.0083 25.6937 35.9827 25.6831C35.9536 25.671 35.9565 25.6618 35.9957 25.7032C36.1119 25.8263 36.3502 26.1845 36.6398 27.0896L40.4495 25.8704C40.0991 24.7755 39.6375 23.7337 38.9037 22.9568C38.0753 22.0796 37.0365 21.68 35.9047 21.68V25.68ZM36.6473 27.1125C36.8469 27.7111 37.2027 28.306 37.7947 28.75C38.3803 29.1892 39.032 29.3569 39.6117 29.3956L39.8777 25.4044C39.8573 25.4031 40.009 25.4108 40.1947 25.55C40.3867 25.694 40.4425 25.8489 40.4421 25.8475L36.6473 27.1125ZM39.7447 29.4H41.3847V25.4H39.7447V29.4ZM41.3847 29.4C42.403 29.4 43.4453 29.0098 44.1077 28.0085C44.6543 27.1823 44.7447 26.2127 44.7447 25.48H40.7447C40.7447 25.7013 40.7279 25.8323 40.7145 25.8971C40.7009 25.9625 40.7017 25.9073 40.7716 25.8015C40.8538 25.6773 40.9878 25.5504 41.1584 25.469C41.3131 25.3953 41.4117 25.4 41.3847 25.4V29.4ZM44.7447 25.48V25.44H40.7447V25.48H44.7447ZM44.7447 25.44C44.7447 23.9688 43.9626 22.2514 42.1767 21.571L40.7527 25.309C40.7421 25.3049 40.728 25.2969 40.716 25.2866C40.7053 25.2774 40.7043 25.2733 40.709 25.2811C40.7141 25.2895 40.7235 25.3082 40.7316 25.3383C40.7398 25.3684 40.7447 25.4034 40.7447 25.44H44.7447ZM42.2356 21.5945L32.7556 17.6345L31.2138 21.3255L40.6938 25.2855L42.2356 21.5945ZM32.7228 17.6212C31.6904 17.2113 30.9168 16.601 30.391 15.8089C29.8637 15.0146 29.5047 13.9152 29.5047 12.4H25.5047C25.5047 14.5648 26.0256 16.4653 27.0584 18.0211C28.0925 19.5789 29.559 20.6687 31.2466 21.3388L32.7228 17.6212ZM29.5047 12.4V8.96H25.5047V12.4H29.5047ZM29.5047 8.96C29.5047 6.51022 30.1656 4.92524 31.0862 3.96119C31.9955 3.00892 33.4085 2.4 35.4647 2.4V-1.6C32.6009 -1.6 30.0339 -0.728924 28.1932 1.19881C26.3637 3.11476 25.5047 5.80978 25.5047 8.96H29.5047ZM35.4647 2.4H45.6647V-1.6H35.4647V2.4ZM45.6647 2.4C47.7446 2.4 49.1542 3.01097 50.0557 3.95855C50.9701 4.91965 51.6247 6.50338 51.6247 8.96H55.6247C55.6247 5.81662 54.7793 3.12034 52.9537 1.20144C51.1152 -0.730973 48.5447 -1.6 45.6647 -1.6V2.4ZM51.6247 8.96V10.64H55.6247V8.96H51.6247ZM51.6247 10.64C51.6247 11.0888 51.4946 11.2803 51.4466 11.3337C51.4168 11.3669 51.3449 11.44 51.1047 11.44V15.44C52.3845 15.44 53.5725 14.9531 54.4228 14.0063C55.2548 13.0797 55.6247 11.8712 55.6247 10.64H51.6247ZM51.1047 11.44H45.2647V15.44H51.1047V11.44ZM45.2647 11.44C45.1559 11.44 45.1052 11.4214 45.0898 11.4149C45.0766 11.4092 45.0566 11.3991 45.0246 11.3643C44.9508 11.2836 44.7725 11.0157 44.6871 10.3757L40.7222 10.9043C40.8769 12.0643 41.2786 13.1964 42.0747 14.0657C42.9137 14.9818 44.042 15.44 45.2647 15.44V11.44ZM44.6846 10.3572C44.5931 9.71657 44.3591 8.92523 43.7457 8.28328C43.0796 7.58623 42.2141 7.32 41.3847 7.32V11.32C41.3851 11.32 41.3843 11.32 41.3847 11.32C41.3851 11.32 41.3843 11.32 41.3846 11.32C41.3846 11.32 41.3846 11.32 41.3845 11.32C41.3844 11.32 41.3842 11.32 41.3839 11.32C41.3833 11.32 41.3825 11.32 41.3815 11.3199C41.3793 11.3198 41.3761 11.3197 41.3719 11.3193C41.3634 11.3187 41.3507 11.3173 41.3342 11.3145C41.301 11.3089 41.2536 11.2978 41.1967 11.276C41.0738 11.229 40.9523 11.1499 40.8537 11.0467C40.6703 10.8548 40.6963 10.7234 40.7248 10.9228L44.6846 10.3572ZM41.3847 7.32H39.7447V11.32H41.3847V7.32ZM39.7447 7.32C38.7145 7.32 37.6881 7.73411 37.0449 8.72957C36.5163 9.54751 36.4247 10.5046 36.4247 11.24H40.4247C40.4247 11.0191 40.4414 10.8859 40.4553 10.818C40.4695 10.7488 40.4703 10.7986 40.4045 10.9004C40.3272 11.0201 40.1955 11.152 40.0172 11.2398C39.8527 11.3208 39.7387 11.32 39.7447 11.32V7.32ZM36.4247 11.24V11.28H40.4247V11.24H36.4247ZM36.4247 11.28C36.4247 12.1551 36.587 13.068 37.0674 13.8818C37.569 14.7313 38.3267 15.3176 39.2272 15.6418L40.5821 11.8782C40.5193 11.8556 40.5012 11.8391 40.5054 11.8425C40.5113 11.8472 40.5149 11.8532 40.512 11.8482C40.5023 11.832 40.4247 11.6849 40.4247 11.28H36.4247ZM39.1998 15.6317L48.4398 19.1117L49.8496 15.3683L40.6096 11.8883L39.1998 15.6317ZM48.4424 19.1127C50.4299 19.8579 51.5847 21.8274 51.5847 23.84H55.5847C55.5847 20.4126 53.6195 16.7821 49.8469 15.3673L48.4424 19.1127ZM51.5848 23.8604L51.6248 27.7804L55.6246 27.7396L55.5846 23.8196L51.5848 23.8604ZM51.6247 27.76C51.6247 30.2166 50.9701 31.8003 50.0557 32.7614C49.1542 33.709 47.7446 34.32 45.6647 34.32V38.32C48.5447 38.32 51.1152 37.451 52.9537 35.5186C54.7793 33.5997 55.6247 30.9034 55.6247 27.76H51.6247ZM45.6647 34.32H35.4647V38.32H45.6647V34.32ZM35.4647 34.32C33.4085 34.32 31.9955 33.7111 31.0862 32.7588C30.1656 31.7948 29.5047 30.2098 29.5047 27.76H25.5047C25.5047 30.9102 26.3637 33.6052 28.1932 35.5212C30.0339 37.4489 32.6009 38.32 35.4647 38.32V34.32ZM78.6603 19.6H80.6603V17.6H78.6603V19.6ZM78.3803 19.6V17.6H76.64L76.3995 19.3236L78.3803 19.6ZM76.4603 33.36L74.4795 33.0836L74.4771 33.1007L74.475 33.1179L76.4603 33.36ZM66.5803 33.36L68.5656 33.1179L68.5639 33.1036L68.5619 33.0893L66.5803 33.36ZM64.7003 19.6L66.6819 19.3293L66.4456 17.6H64.7003V19.6ZM64.3803 19.6V17.6H62.3803V19.6H64.3803ZM69.5403 3.4L67.5493 3.58962L67.5503 3.59943L69.5403 3.4ZM71.3803 21.76L69.3903 21.9594L69.5707 23.76H71.3803V21.76ZM71.6603 21.76V23.76H73.4699L73.6503 21.9594L71.6603 21.76ZM73.5003 3.4L71.5143 3.16357L71.5121 3.18205L71.5103 3.20056L73.5003 3.4ZM86.1003 3.4V33.32H90.1003V3.4H86.1003ZM86.1003 33.32C86.1003 33.7485 85.9721 33.9423 85.9147 34.0054C85.8703 34.0543 85.7893 34.12 85.5803 34.12V38.12C86.8513 38.12 88.0303 37.6257 88.8759 36.6946C89.7086 35.7777 90.1003 34.5715 90.1003 33.32H86.1003ZM85.5803 34.12H81.1803V38.12H85.5803V34.12ZM81.1803 34.12C80.9401 34.12 80.8682 34.0469 80.8384 34.0137C80.7904 33.9603 80.6603 33.7688 80.6603 33.32H76.6603C76.6603 34.5512 77.0302 35.7597 77.8622 36.6863C78.7125 37.6331 79.9005 38.12 81.1803 38.12V34.12ZM80.6603 33.32V19.6H76.6603V33.32H80.6603ZM78.6603 17.6H78.3803V21.6H78.6603V17.6ZM76.3995 19.3236L74.4795 33.0836L78.4411 33.6364L80.3611 19.8764L76.3995 19.3236ZM74.475 33.1179C74.3796 33.9007 73.9485 34.12 73.5803 34.12V38.12C76.2521 38.12 78.1411 36.0993 78.4456 33.6021L74.475 33.1179ZM73.5803 34.12H69.4603V38.12H73.5803V34.12ZM69.4603 34.12C69.0921 34.12 68.6611 33.9007 68.5656 33.1179L64.595 33.6021C64.8996 36.0993 66.7885 38.12 69.4603 38.12V34.12ZM68.5619 33.0893L66.6819 19.3293L62.7187 19.8707L64.5987 33.6307L68.5619 33.0893ZM64.7003 17.6H64.3803V21.6H64.7003V17.6ZM62.3803 19.6V33.32H66.3803V19.6H62.3803ZM62.3803 33.32C62.3803 33.7688 62.2502 33.9603 62.2022 34.0137C62.1725 34.0469 62.1005 34.12 61.8603 34.12V38.12C63.1401 38.12 64.3282 37.6331 65.1784 36.6863C66.0104 35.7597 66.3803 34.5512 66.3803 33.32H62.3803ZM61.8603 34.12H57.5003V38.12H61.8603V34.12ZM57.5003 34.12C57.2601 34.12 57.1882 34.0469 57.1584 34.0137C57.1104 33.9603 56.9803 33.7688 56.9803 33.32H52.9803C52.9803 34.5512 53.3502 35.7597 54.1822 36.6863C55.0325 37.6331 56.2205 38.12 57.5003 38.12V34.12ZM56.9803 33.32V3.4H52.9803V33.32H56.9803ZM56.9803 3.4C56.9803 2.95119 57.1104 2.75973 57.1584 2.70625C57.1882 2.67311 57.2601 2.6 57.5003 2.6V-1.4C56.2205 -1.4 55.0325 -0.913114 54.1822 0.0337471C53.3502 0.960267 52.9803 2.16881 52.9803 3.4H56.9803ZM57.5003 2.6H66.7403V-1.4H57.5003V2.6ZM66.7403 2.6C66.9839 2.6 67.131 2.67909 67.2361 2.78421C67.3528 2.9009 67.507 3.14558 67.5493 3.58962L71.5313 3.21038C71.2902 0.678634 69.458 -1.4 66.7403 -1.4V2.6ZM67.5503 3.59943L69.3903 21.9594L73.3703 21.5606L71.5303 3.20056L67.5503 3.59943ZM71.3803 23.76H71.6603V19.76H71.3803V23.76ZM73.6503 21.9594L75.4903 3.59943L71.5103 3.20056L69.6703 21.5606L73.6503 21.9594ZM75.4863 3.63642C75.5432 3.15821 75.7075 2.89742 75.8268 2.77694C75.9281 2.67456 76.0628 2.6 76.3003 2.6V-1.4C73.5461 -1.4 71.806 0.713626 71.5143 3.16357L75.4863 3.63642ZM76.3003 2.6H85.5803V-1.4H76.3003V2.6ZM85.5803 2.6C85.7893 2.6 85.8703 2.66568 85.9148 2.71459C85.9721 2.77771 86.1003 2.97154 86.1003 3.4H90.1003C90.1003 2.14846 89.7086 0.942287 88.8759 0.025404C88.0303 -0.905688 86.8513 -1.4 85.5803 -1.4V2.6Z" fill="black" mask="url(#path-1-outside-1_20_23)"/>
</svg>
